<?xml version="1.0" encoding="UTF-8"?>
<svg id="Layer_1" xmlns="http://www.w3.org/2000/svg" xmlns:xlink="http://www.w3.org/1999/xlink" version="1.1" viewBox="0 0 1794 1082">
  <!-- Generator: Adobe Illustrator 29.4.0, SVG Export Plug-In . SVG Version: 2.1.0 Build 152)  -->
  <defs>
    <style>
      .st0 {
        fill: none;
      }

      .st1 {
        mask: url(#mask);
      }

      .st2 {
        mask: url(#mask-2);
      }

      .st3 {
        mask: url(#mask-1);
      }

      .st4 {
        fill: #fff;
      }

      .st5 {
        fill: #acacac;
      }

      .st6 {
        clip-path: url(#clippath);
      }
    </style>
    <clipPath id="clippath">
      <rect class="st0" x=".5" y="1" width="1793" height="1081"/>
    </clipPath>
    <mask id="mask" x="-73.4" y="-210.1" width="2068.6" height="1501.5" maskUnits="userSpaceOnUse">
      <g id="mask0_1438_66760">
        <path class="st4" d="M1920.6,1H.6v1080h1920V1Z"/>
      </g>
    </mask>
    <mask id="mask-1" x="-73.4" y="-210.1" width="2068.6" height="1501.5" maskUnits="userSpaceOnUse">
      <g id="mask1_1438_66760">
        <path class="st4" d="M1931.5-33H-9.4v1167.6h1940.9V-33Z"/>
      </g>
    </mask>
    <mask id="mask-2" x="-73.5" y="-210.1" width="2068.6" height="1501.5" maskUnits="userSpaceOnUse">
      <g id="mask2_1438_66760">
        <path class="st4" d="M1995-210H-73.5v1501.3H1995V-210Z"/>
      </g>
    </mask>
  </defs>
  <g class="st6">
    <g class="st1">
      <g class="st3">
        <g class="st2">
          <path class="st5" d="M1992.3,46.6c-.5,3.2.4,6.3-.3,9.4-.7,3.2-1.5,6.4-2.3,9.6-.9,3.2-3.1,6.1-4.2,9.3-1.1,3.1-1.1,6.5-2.4,9.6-1.2,3.1-3.5,5.7-5,8.8-1.4,3-2.1,6.3-3.8,9.3-1.3,3.2-2.4,6.6-3.7,9.8-1.3,3.2-4.1,6-5.6,9.2-1.4,3.2-2.6,6.5-4.1,9.8-1.5,3.2-3,6.4-4.6,9.6-1.5,3.2-2.1,6.9-3.7,10-1.6,3.2-3.5,6.2-5.2,9.3-1.7,3.1-3.3,6.4-5.1,9.4-1.8,3-4.2,5.7-6.1,8.7-1.9,3-4,5.8-6.1,8.6-2,2.9-3.6,6.3-5.7,9.1-2,2.5-4.9,3.7-7,5.9-2.2,2.2-3.9,5.2-6.1,7.3-2.2,2.1-5,3.1-7.2,5.3-2.2,2.2-3.5,5.5-5.5,8-2.1,2.9-4.3,5.8-6.4,8.7-2.1,2.9-4.8,5.2-7,8.1-2.1,2.9-3.8,6.3-6,9.1-2.2,2.8-4.4,5.7-6.7,8.4-2.3,2.8-4.9,5-7.3,7.6-2.3,2.6-4.3,5.9-6.7,8.4-2.4,2.5-5,4.9-7.5,7.2-2.3,2.4-5.2,3.4-7.7,5.3-2.5,1.9-4.7,5.1-7.3,6.6-2.6,1.5-5.5,1.1-8.1,2.4s-5.1,4-7.7,5.3c-2.6,1.4-5.1,3.1-7.6,4.7-2.8,2.1-5.9,3.6-8.7,5.9-2.8,2.2-5.7,4.2-8.5,6.5-2.8,2.2-5.2,5.8-8,7.9-2.8,2.1-6.1,2.5-9,4.4-2.9,1.9-5.7,3.5-8.7,5-2.5,1.4-4.8,3.2-7.3,4.5-2.5,1.3-5,2.5-7.4,4-2.4,1.5-4.9,3.1-7.3,4.9-3,2.4-5.8,5.4-8.8,8-3,2.6-5.7,6-8.9,7.8-2.9,1.4-5.9,2.9-8.8,3.9-2.9,1-5.7.2-8.6,1.2-2.9.9-5.8,2.4-8.7,3.5-2.9,1-5.8,2-8.6,3.4-2.8,1.3-5.7,2.6-8.6,4.4-2.6,1.4-4.9,4.2-7.4,5.8-2.5,1.6-5.3,2-7.8,3.8-2.5,1.7-4.8,4-7.3,5.8-2.5,1.8-5.1,3.3-7.5,5.2-2.4,1.9-4.7,4.3-7.1,6.3-2.4,1.9-4.8,3.9-7.2,5.9-2.4,1.9-4.9,3.6-7.3,5.5-2.4,1.9-5,3.3-7.4,5.1-2.4,1.8-4.9,3.5-7.3,5.2-2.5,1.7-4.9,3.3-7.4,4.9-2.5,1.7-4.7,4.6-7.2,6.2-2.5,1.6-5.1,3-7.6,4.5-2.5,1.5-5,3.2-7.6,4.6-2.6,1.4-5.3,1.6-7.8,2.9-2.6,1.3-5,3.5-7.6,4.7-2.6,1.2-5.2,1.6-7.7,2.7-2.5,1.1-5.1,2.3-7.6,3.4-2.5,1.1-5.1,1.5-7.7,2.5-2.5,1-5.1,3.4-7.6,4.4-2.5,1-5.1.7-7.6,1.7-2.5,1-5.1,1.9-7.6,2.9-2.5,1-5,2-7.6,3-2.5,1-5,2.2-7.5,3.1-2.5,1-5,2.4-7.5,3.4-2.5,1-5,2.4-7.5,3.4-2.5,1-5.1,1.1-7.5,2.2-2.5,1.1-4.9,3.2-7.4,4.4-2.5,1.1-4.9,2.5-7.4,3.7-2.5,1.2-4.9,2.4-7.4,3.7-2.4,1.3-4.9,2.2-7.4,3.6-2.4,1.4-5,2.1-7.4,3.6-2.4,1.5-4.6,3.8-6.9,5.3-3.6,2.4-7,4.5-8.9,5.1-2.5.8-2-.6,4.9-6.4,2.2-1.7,4.4-3.2,6.7-4.7,2.2-1.5,4.4-3.2,6.7-4.6,2.3-1.4,4.6-2.7,6.9-4,2.3-1.3,4.6-3,6.9-4.2,2.3-1.2,4.7-2.7,7-3.9,2.3-1.2,4.8-1.6,7.2-2.8,2.3-1.2,4.8-1.8,7.1-3,2.3-1.1,4.5-3,6.8-4.3,2.3-1.3,4.4-3.2,6.7-4.6,2.3-1.4,4.8-1.6,7.1-2.9,2.3-1.4,4.5-2.8,6.8-4.1,2.3-1.3,4.5-3.3,6.8-4.5,2.5-1,5-1.7,7.5-2.7,2.5-1,5-1.9,7.5-2.8,2.5-1,5-2.1,7.5-3.2,2.5-1,5-2.3,7.5-3.4,2.5-1.1,5-2.4,7.5-3.6,2.5-1.2,5.1-1.6,7.6-3,2.5-1.4,5-2.8,7.5-4.3,2.5-1.6,4.8-3.7,7.2-5.5,2.4-1.8,4.9-3.4,7.2-5.4,2.5-2.2,4.9-5.2,6.8-7.8,1.9-2.7,2.7-5.2.9-5.8-2.7-.8-6.7,1.8-9.8,2.6-2.5.6-4.8.4-7.3,1.3-2.4.9-4.9,2.4-7.3,3.6-2.4,1.2-4.9,1.8-7.3,3.1-2.4,1.3-4.7,3.2-7.1,4.6-2.4,1.4-4.8,2.4-7.2,3.8-2.4,1.4-4.6,3.7-7,5-2.4,1.1-4.9.9-7.3,1.7-2.4.7-4.9,3-7.4,3.7-2.4.7-4.8,0-7.2.9-2.5,1-4.9,3-7.4,4.1-2.5,1.1-4.9,2.2-7.4,3.4-2.4,1.2-4.8,2.8-7.3,4.1-2.4,1.3-5.1,1.4-7.5,2.8-2.4,1.4-4.6,4-7,5.5-2.4,1.6-5.1,2.2-7.5,3.9-2.4,1.7-4.4,4.5-6.8,6.1-2.4,1.7-5.1,2.1-7.5,3.8-2.3,1.7-4.5,3.9-6.9,5.6-2.3,1.8-4.7,3.5-7,5.2-2.3,1.8-4.3,4.3-6.6,6.1-2.3,1.8-4.9,3-7.1,4.8-2.3,1.9-4.5,3.8-6.7,5.7-2.2,1.9-4.6,3.6-6.8,5.5-2.2,1.9-4.3,4.2-6.4,6.1-2.2,1.9-4.5,3.7-6.7,5.7-2.2,2-3.8,4.8-5.9,6.8-2.1,2-4.4,3.7-6.5,5.8-2.1,2-4,4.3-6.1,6.4-2.1,2.1-4.7,3.5-6.8,5.6-2.1,2.1-4,4.5-6.1,6.5-2.1,2-4.6,3.5-6.8,5.5-2.1,2-3.8,4.8-5.9,6.7-2.2,2-4.7,3.2-6.9,5.2-2.2,1.9-4.3,3.8-6.5,5.7-2.2,1.8-4.5,3.5-6.7,5.2-2.2,1.8-4.3,3.8-6.6,5.5-2.3,1.7-4.4,3.5-6.7,5.2-2.3,1.6-4.7,2.9-7,4.5-2.3,1.5-4.6,3.1-6.9,4.6-2.3,1.5-4.5,3.5-6.8,4.9-2.4,1.3-5,1.5-7.4,2.7-2.4,1.2-4.6,3.1-7,4.2-2.4,1.1-4.9,1.6-7.3,2.6-2.4,1-4.8,2.1-7.2,2.9-2.4.8-4.8,2.3-7.3,2.9-2.4.7-4.8.4-7.3.9-2.4.5-4.8.4-7.2.7-2.4.3-4.8,1.1-7.2,1.3-2.5.2-5,1-7.2,1.3-2.6.4-4.9.5-7.1,1-2.6.6-4.9,1.7-7.2,2.4-2.5.8-4.8,1.5-7.1,2.4-2.4,1-4.9,1.1-7.2,2.1-2.3,1-4.5,2.4-6.9,3.4-2.2,1-4.5,2.3-7,3.1-2.2.8-4.6,1.4-7.1,2-2.2.6-4.6,1.4-7.1,1.8-2.2.4-4.6.6-7.1.9-2.2.2-4.5,0-6.9,0-2.2,0-4.5.3-7,.3s-4.6.5-7,.4c-2.3,0-4.5,0-6.8,0-2.2,0-4.4-.5-6.6-.6-2.2-.2-4.3-.9-6.5-1.1s-4.3-.8-6.5-1c-2.2-.2-4.4-.3-6.6-.5-2.2-.2-4.7.8-6.9.6-2.2-.1-4.4-.4-6.6-.5-2.2,0-4.3-.6-6.6-.5-2.2,0-4.5,0-6.8,0-2.3,0-4.5-.4-6.7-.2-2.3.2-4.7,1.5-7,1.8-2.3.3-4.5-.4-6.8,0-2.3.4-4.6.5-6.9.9-2.3.4-4.6,1.2-6.9,1.7-2.3.5-4.6,1.8-6.9,2.3-2.3.5-4.6,0-6.9.5-5.2.8-5.8.9-4.2,0,1.2-.7,3.6-1,6.1-2,2-.7,4-2.6,6-3.3,2.9-1,5.4-.8,6.3-.9,2.3-.6,4.7-.9,7-1.4,2.3-.5,4.7-2.1,7-2.5,2.4-.4,4.8-.8,7.1-1.2,2.4-.4,4.7-.1,7.1-.5,2.4-.3,4.8-1.3,7.2-1.6,2.4-.3,4.7,0,7-.3,2.4-.3,4.8-.7,7.1-1,2.4-.2,4.7-.2,7.1-.4,2.4-.2,4.8-1.2,7.2-1.3,2.3-.2,4.6.6,7,.4,2.4-.2,4.8-.8,7.2-.9,2.4-.1,4.6.8,7,.6,2.1-.6,4.2-2.4,6.3-3.6,2-1.2,4-2.5,6.1-3.6,2-1.1,4.1-2.2,6.3-2.5,2.2-.5,4.4-1,6.6-1.5,2.2-.5,4.5-.4,6.7-1.2,2.2-.8,4.1-2.8,6.2-4.1,2.8-1.8,4.3-3.3,4.4-5,.2-1.8-1-3.8-2.8-4.9-1.5-1-3.3-2.2-5.2-2.4-2-.3-4.2-.5-6.3-.6-2.1,0-4.4.4-6.5.6-2.1.1-4.4,1.1-6.6,1.3-2.2.3-4.3.7-6.5,1.1-2.2.4-4.3.5-6.5.9-2.2.4-4.3.3-6.5.7-2.2.5-4.3.5-6.5,1-2.2.4-4.4,2-6.5,2.3-2.3.4-4.5-.3-6.7-.1s-4.6.8-6.8.8c-2.2,0-4.5.3-6.8.4-2.2,0-4.5,0-6.7.1s-4.4-.4-6.6-.3c-2.2,0-4.5,0-6.8.3-2.3.2-4.6,1.7-6.9,2.1-2.3.3-4.5.3-6.8.7-2.3.5-4.5.6-6.8,1.1s-4.5,2-6.8,2.6c-2.3.6-4.6.7-6.8,1.2-2.3.5-4.5,1.4-6.8,1.8-2.1.3-4.1.3-6.2.5-2,.2-4.1.2-6.1.4-2,.2-4-.3-6,0-2,.2-4.1.7-6.2,1-2.2.5-4.5.9-6.8,1.4-2.2.5-4.5,1.4-6.7,1.9-2.2.6-4.4,1.7-6.7,2.3s-4.5.7-6.8,1.3c-2.2.6-4.5.7-6.8,1.4-2.2.7-4.4,2-6.6,2.7-2.2.7-4.3,2.1-6.5,2.9-2.2.8-4.6.6-6.8,1.4-2.2.8-4.2,2.6-6.3,3.5-2.2.9-4.3,1.7-6.5,2.7s-4.4,1.4-6.6,2.4c-2.1,1-4.5,1.5-6.6,2.5-2.1,1-4.2,2.3-6.3,3.4-2.3,1.2-4.5,2.8-6.8,4.1-2.3,1.3-4.4,2.9-6.6,4.3s-4.8,2.2-7,3.6c-2.2,1.4-4.5,2.7-6.7,4.1-1.5,1-3,2.1-4.3,3.2-1.4,1.2-2.7,2.5-3.7,3.9-1.7,2.3-2.8,5-4.1,7.5-1.3,2.5-2.3,5.4-4.4,7.4-1.7,1.5-3.9,2.5-5.6,3.8-1.8,1.3-3.8,2.3-5.7,3.5s-3.8,2.3-5.7,3.4c-1.9,1.1-3.6,2.7-5.6,3.7-2,1-4,1.9-6.1,2.8-2,.9-4,2-6,2.9-2,.9-4.1,1.8-6.1,2.7-2,.8-4,2-6,2.9-2,.8-4.2,1.4-6.2,2.1-2.1.7-4.2,1-6.3,1.7-2.1.7-4.2,1.1-6.3,1.7-2.1.6-4.1,1.4-6.2,1.9-2.1.5-4.2,1.2-6.3,1.7-2.1.5-4.2,1.5-6.3,1.9-2.1.5-4.3.2-6.4.6-2.1.4-4.2,1.7-6.3,2.1-2.1.4-4.3-.3-6.4,0-2.2.1-4.6.9-6.8,1-2.3,0-4.5.3-6.8.5-2.3.2-4.6-.3-6.8.3-2.2.6-4.3,1.8-6.4,3-2.2,1-4.7,1.5-7,2.5-2.3,1-4.2,2.9-6.4,3.9-2.2,1.1-4.9,1.3-7.1,2.5-2.2,1.2-3.9,3.1-5.9,4.6-2,1.5-3.4,3.4-5.1,5.2-1.4,1.8-2.9,3.5-4.3,5.3-1.4,1.8-2.6,3.8-4,5.6-1.4,1.8-2.8,3.7-4.3,5.4-1.5,1.7-3.7,3-5.4,4.5-2.8,3.3-1.4,3.9,1.1,3.9,2,0,4.5-.7,6.5-1.8,1.8-.9,3.5-1.8,5.1-3,1.6-1.1,3.1-2.3,4.5-3.6,1.4-1.9,3.1-3.5,4.7-5.2,1.6-1.7,3.9-2.8,5.7-4.3,1.8-1.6,3.1-3.7,5-5,1.9-1.4,4-2.6,6-3.8,2-1.2,4.3-2,6.5-3.1,2.1-1,4-2.8,6.2-3.7,2.2-.9,4.5-1.8,6.7-2.5,2.2-.8,4.7-.7,6.9-1.3,2.3-.6,4.6-1,6.9-1.5,2.3-.5,4.5-1.5,6.8-1.9,2.3-.4,4.7-.4,7-.8,2.3-.4,4.7-.4,7-.8,2.3-.4,4.7-.8,7-1.1,2.3-.4,4.7-1.3,7-1.6,2.3-.3,4.7-.5,7-.7,2.3-.2,4.6.2,6.9.1,2.1,0,4.3,0,6.4.3,2.1.4,4.3.5,6.3.9,2.1.4,4.1,1.2,6.2,1.3,2.2.2,4.3.2,6.5,0,2.2-.1,4.3-1,6.5-1.4,2.2-.4,4.4-.2,6.5-.8,2.1-.6,4.3-1.4,6.4-2.1,2.1-.8,4.1-2,6.2-2.8,2.1-.8,4.3-1.2,6.4-2.1,2.1-.9,4-2.4,6.1-3.2,2.1-.8,4.5-.7,6.6-1.4,2.1-.8,4.3-1.3,6.4-2.1,2.1-.8,4-2.4,6.1-3.2,2.1-.9,4.5-1,6.5-2,2.1-1,3.6-3.1,5.6-4.2,2-1.1,4.6-1.3,6.5-2.6,2.1-1.5,4.2-3.2,6.2-4.9,2-1.6,3.8-3.6,5.9-5.1,2.1-1.5,4.3-3,6.7-4,2.1-.8,4.2-1.9,6.4-2.6,2.2-.7,4.4-1,6.6-1.6,2.2-.7,4.4-1,6.6-1.7,2.2-.6,4.3-1.5,6.5-2.2,2.2-.7,4.3-1.7,6.5-2.4,2.2-.7,4.5-.9,6.6-1.8,2.1-.8,4.3-1.7,6.4-2.7,2.7-1.4,5-2.6,7-3.8,2.6-1.5,4.4-3.8,6.5-4.9,2.4-1.3,4.7-2.3,7.3-3,2.1-.6,4.6-.8,7.5-1,2.1-.2,4.6-.6,7.4-.6,2.2-.1,4.2.3,6.4,0,2.2-.2,4.4-.4,6.6-.7,2.2-.3,4.4-.4,6.6-.9,2.2-.4,4.4-1.8,6.6-2.2,1.6-.4,5.5-.5,8.2-.9,3.5-.5,5.1-1.2-2,1.3-2.2.8-4.4,1.1-6.6,1.6-2.2.5-4.4,2-6.6,2.4-2.2.4-4.4.2-6.7.5-2.2.3-4.5,1.5-6.7,1.8-2.2.3-4.4.6-6.6,1-2.2.4-4.4,0-6.7.5-2.2.5-4.4,1.3-6.6,2-2.4.8-4.9,1.5-7.2,2.8-2.2,1.2-4.1,3.4-6.3,4.8-2.2,1.3-4.5,2.6-6.8,3.7-2.1,1-4.2,2.2-6.4,2.9-2.2.8-4.4,1.5-6.6,2.1-2.2.6-4.5.4-6.7,1-2.2.6-4.2,2-6.4,2.8-2.2.7-4.5.8-6.6,1.7-2.5,1-4.7,2.9-7,4.3-2.3,1.4-5,2.3-7.2,3.9-2.2,1.6-4.5,3.2-6.7,4.8-1.9,1.3-4,2.3-5.9,3.5-1.9,1.2-3.7,2.7-5.6,3.9s-3.8,2.6-5.8,3.7c-2,1.1-3.7,2.8-5.8,3.8-2,1-4.2,1.8-6.2,2.7-2.3,1-4.6,2.2-7,3.2-2.3,1-5,1-7.3,2-2.3,1-4.4,2.9-6.7,3.8-2.3,1-4.8,1.6-7.1,2.6-2.3,1-4.7,1.8-7,2.8-2.1,1-4.4,2-6.7,3.4-2.1,1.2-4.2,2.6-6.4,3.8-2.2,1.2-4.2,3.1-6.4,4-2.4.9-4.8.5-7.2.6-2.3.2-4.4.3-6.7-.6-2-1.5-4.1-2.4-6.1-2.8-2.2-.4-4.7-.2-7.1.2-2.2.3-4.5,1.4-7,1.9-2.1.4-4.2.3-6.3.5s-4.2.7-6.3.9c-2.1.2-4.2-.4-6.3,0-2.7.4-4.8,1.9-6.6,2.5-3.4,1.2-5.5,2.2-5.5,3.6,0,1.4,1.5,3.3,4.8,4,1.7.4,4.2-.3,6.9-.2,1,.3,3.7,0,7-.3,2.2-.2,4.7.7,7.1.5,2.6-.1,5.1-.5,7-.3,3.3.3,5.7,1.5,4.2,3.9-1.4,2.1-6.1,3.6-7.3,6,.7,1.9,2.9,2.2,5.6,2.3,2,.1,4.2.2,6.6-.2,2.2-.4,4.6-.8,6.7-1.3,2.7-.6,5.1-.9,6.7-1.1,2.1-.3,4.2-.6,6.3-.5,2.1,0,4.1.3,6.2.5,2.1.2,4.2,0,6.3,0,2.1,0,4.1,0,6.2-.4,2-.3,4.2-.2,6.3-1.1,2.2-.6,4-2.4,6.1-3.2,2.1-.8,4.4-1.2,6.4-2.2,2.1-1,4.2-1.8,6.2-2.9,2-1,3.6-3,5.7-4.1,2-1.1,4.5-1.2,6.5-2.3,2-1.1,3.9-2.5,5.9-3.5,2-1.1,4.2-1.8,6.2-2.8,2.4-1,1.9,0,.6.8-1.9,1.4-3.7,3-5.7,4.3-2,1.3-4,2.5-6.1,3.7-2,1.2-4.3,1.8-6.4,3-2,1.2-3.9,2.8-6,3.8-2.1,1.1-4.1,2.4-6.2,3.4-2.1,1-4.4,1.6-6.5,2.4-2.1.9-4.3,1.7-6.5,2.5-2.2.8-4.5.8-6.7,1.5-2.2.7-4.2,2-6.4,2.6-2.2.6-4.5.6-6.7,1.1-2.2.5-4.3,1.8-6.6,2.2-2.2.5-4.5.5-6.7.9-2.2.4-4.5.8-6.7,1s-4.5,0-6.7.2c-2.4,0-4.7-.2-7.1-.3-2.4-.1-5,.9-7.3.7-2.4-.2-4.5-1.7-6.9-1.8-2.4-.1-4.9.2-7.2.3-2.4,0-4.8.7-7.2,1-2.4.4-4.7.8-7.1,1.6-2,.5-4.1.9-6.1,1.6-2,.7-3.9,1.7-5.8,2.5-2,.8-3.9,1.6-5.9,2.3-2,.8-3.8,2-5.8,2.6-2.3.7-4.7,1.2-7,2-2.3.8-4.4,2-6.6,3.1-2,1.1-4.2,1.8-6.2,2.9s-4,2.1-6,3.2c-2,1.1-4,2.1-6,3.2-2,1.1-4,2.2-6,3.4-2,1.1-4.3,1.7-6.3,2.8-2,1.1-3.8,2.7-5.7,3.8-2,1.1-4.1,2.1-6.1,3.2-2,1.1-4.2,1.9-6.1,3-2,1.1-3.7,2.7-5.7,3.8-2,1.1-4,2.1-6,3.2-2,1.1-4.1,2-6.1,3.1-2,1.1-3.6,3-5.6,4-2.1,1.1-3.9,2.2-5.6,3.3-2,1.2-4.4,1.6-6,2.8-2,1.5-3.1,3.5-4.4,4.9-1.7,1.8-3.2,3.3-4.3,5-1.2,2-1.5,4.2-2.2,6.1-.8,2-2.4,3.7-3.2,5.8-.7,1.9-.4,4.4-1.6,6.5-1,1.7-2.8,3.1-4.5,4.9-1.6,1.6-3.4,3-4.9,4.7-1.5,1.7-2.5,3.8-3.9,5.6-1.4,1.8-2.7,3.6-4,5.5-1.3,1.9-3.1,3.4-4.2,5.4-1.2,2-2.8,3.7-3.8,5.8-1,2.1-1.3,4.5-2.1,6.7-.8,2.2-.9,4.5-1.4,6.8s-2,4.3-2.3,6.7c-.3,2.3.3,4.7.3,7.1,0,2.5,0,5.1.6,7.3.7,2.4,1.8,4.7,3,6.8,1.2,2.1,2.9,3.9,4.5,5.8,1.5,1.8,3.2,3.7,4.9,5.3,1.8,1.6,4.2,2.4,6.1,3.9,1.7,1.7,2.7,4.5,4.5,6,1.8,1.6,4.3,2.1,6.2,3.6,1.9,1.4,3.7,3,5.7,4.4,2,1.4,4,2.6,6,4,2,1.4,3.9,2.8,5.8,4.3,1.9,1.5,3.4,3.7,5.2,5.3,1.8,1.6,3.8,3,5.6,4.9,1.6,1.6,2.4,3.8,3.5,5.8,1.1,2,2.4,3.9,3.2,6,.9,2.2,1.6,4.4,2.4,6.6.8,2.2,1.6,4.5,2.6,6.6,1.3,2.4,3.2,4.8,4.8,7.1,1.7,2.4,3.5,4.7,4.4,7.3.9,2.6,1.2,5.2.2,8.1-.9,2.3-2.3,3.8-3.8,5.4-1.5,1.6-2.7,3.5-4.6,4.6-1.8,1-4,1.2-6,2-1.9.7-3.9,1.6-5.9,2.3-2,.7-3.9,1.7-5.8,2.5-2,.8-3.7,2-5.4,3.2-1.8,1.2-3.4,2.4-4.8,4.2-1.2,1.4-2.7,3.2-3.8,5.3-1.1,2.2-1.4,4.6-1.3,6.9.1,2.4.6,4.8,3.4,6.5,1.5,1,3.9,1.3,6.8,1.1,1.9-.1,4.3,0,6.6-.4,2-.4,3.7-2,5.8-2.6,2-.6,4.2-1,6.1-1.7,2-.7,4.4-.6,6.3-1.4,2.1-.8,4.1-1.8,5.8-2.6,2.4-1.1,3.6-3.6,4.8-4.4,1.7-1.2,4.3-1.2,5.9-2.6,1.6-1.4,2.7-3.5,4.2-5,1.5-1.5,2.4-3.8,3.8-5.5,1.4-1.7,3.7-2.4,4.9-4.3,1.2-1.9,1.6-4.5,2.7-6.5,1.1-2.2,2.1-4.2,2.5-6.7.4-2.5,1-5,.8-7.7-.2-2.6-1-5.3-1.6-7.9-.6-2.6-1.6-5.1-2.4-7.6-.6-2.9-1.1-5.7-2.2-8.1-1.2-2.6-2.8-4.9-4.4-7-1.6-2.1-3.6-4-5.5-5.9-1.9-1.8-4.1-3.2-6-5-1.9-1.8-4.1-3.3-5.9-5.1-1.8-1.9-2.8-4.7-4.4-6.8-1.4-2-2.9-3.9-3.7-6.2-.8-2.3-.6-4.9-1.3-7.2-.8-2.3-2.6-4-4-5.9-1.3-1.7-2.7-3.4-5-4.2-2.2-.9-4.2-2.2-6.1-3.5-2-1.3-4.2-2.4-5.9-4-1.7-1.7-2.8-4-4.2-6-1.4-2-2.5-4-3.6-6.2-1-2.2-1.9-4.3-2.6-6.7-.7-2.3-2-4.5-2.3-6.9-.2-2.4.2-4.9.4-7.2.2-2.4.7-4.7,1.3-7,.6-2.3.9-4.8,1.9-6.9,1-2.1,3-3.6,4.4-5.5,1.4-1.8,2.3-4.1,3.2-6.2.9-2.1,1.7-4.3,2.5-6.5.8-2.2,1.7-4.3,2.6-6.4.9-2.1,1.9-4.2,3.3-6,1.4-1.4,2.4-3.4,4-4.8,1.5-1.4,3.3-2.6,5-3.8,1.7-1.2,3.7-2.1,5.5-3,1.9-.8,4-1,6-1.2,1.8,0,3.2.9,4.7,1.9,1.5,1,2.8,2.6,4.3,3.3,2.4.5,4.5-.4,6.1-1.4,1.6-1,3.2-2.6,4.2-4.6.9-1.7,1.3-3.9,2-5.9.8-2,2-3.7,2.9-5.5,1-2,1.9-3.8,3.4-5,1.5-1.7,3-3.4,4.5-5,1.6-1.6,3.5-2.8,5.1-4.3,1.7-1.5,2.8-3.7,4.5-5.1,1.8-1.4,3.5-2.9,5.4-4.1,1.9-1.2,4.1-1.8,6.1-3,2-1.1,4-1.9,6.1-2.9,2-1,3.9-2.2,6-3,2.1-.8,4-2.3,6.1-3.1,2.1-.7,4.3-1,6.5-1.6,2.4-.8,4.5-1.2,6.3-1.8,2.8-.9,4.9-.8,6.4-1.2,3.9-1,2.9-1.2-1,.6-1.5.7-3.3,2.4-5.7,3.4-1.8.8-4.2.7-6.4,1.6-2.1,1-4.4,1.6-6.5,2.5-2.1,1-3.7,3.2-5.8,4.2-2.1,1-4.2,1.9-6.2,3.1-2,1.2-4,2.3-5.9,3.7-1.9,1.3-4.2,2.2-6,3.7-2,1.5-3.6,3.1-5.2,4.5-1.9,1.7-3.7,3.2-5,4.7-1.6,1.9-2.2,4.3-3.3,6-1.3,2.1-2.3,4-3.2,6-.9,2.2-1.7,4.3-2.6,6.3-.9,2-2,4-3.3,6.1-1.1,1.8-3.1,3-4.9,4.8-1.5,1.4-3.1,2.9-5.2,4.3-2.1,1.5-3.5,3.1-5,3.5-2.4.5-4.3-.4-5.7-1.5-1.6-1.2-2.8-3-4.5-3.8-1.4-.6-3.5-1.2-6,.3-1.8,1.4-3.3,3.5-4.9,5.2-1.5,1.7-2.4,4-3.8,5.9-1.3,1.9-3.2,3.5-4.3,5.6-1.1,2.1-1.8,4.4-2.7,6.5-1,2.2-1.2,4.6-2.1,6.8-.9,2.2-2.3,4.2-3.1,6.3-.7,1.9-1.1,3.9-1.6,5.9-.5,2-1.3,4-1.2,6,.1,2,.4,4.3,1.4,6.2,1.3,2.2,3.3,3.8,4.9,5.7,1.6,1.9,2.9,4.2,4.7,5.9,1.8,1.6,3.7,3.3,5.7,4.9,1.9,1.5,4.2,2.6,6.1,4.1,2,1.6,4.4,2.5,6.2,4.1,1.9,1.7,3.7,3.6,5.3,5.6,1.5,2.2,1.8,5.1,2.7,7.6.9,2.5,1.5,5.2,2.6,7.6,1.1,2.4,2.6,4.7,4.7,6.6,1.6,1.9,3.8,3,5.7,4.6,1.9,1.6,3.5,3.6,5.5,5,2,1.4,4.5,1.6,6.6,2.8,2.1,1.2,4,2.9,6.1,4.1,2.1,1.2,4.3,2.1,6.4,3.5,1.8,1.3,3.5,3.2,5.2,4.8,1.7,1.6,3,3.8,4.6,5.5,1.6,1.7,3.3,3.4,4.9,5.1,1.9,2,3.9,4,6,6,2,2,4,4,5.8,6.2,1.8,2.2,4.2,4.1,5.6,6.7,1.3,2.4,1.2,5.1,1.6,7.6.4,2.5.8,4.9.5,7.4-.3,2.4-.4,4.9-1.2,7.1-.8,2.1-1.9,4.1-3.1,5.9-1.2,1.9-2.4,3.8-3.8,5.2-1.4,1.7-3.3,2.9-5,4.3-1.7,1.4-3.5,2.7-4.7,4.6-1.2,2-1.8,4.4-2,6.9-.2,2.5-.2,5.2-.5,7.7-.4,2.3-.9,4.7-1.7,6.8-.8,2.1-1.2,4.6-2.2,6.5-1,1.9-3.3,2.6-4.5,4.3-1.3,1.7-2.6,3.2-4,4.7-1.4,1.5-2.7,3.2-4.2,4.4-1.6,1.3-3.3,2.3-5,3.4-1.7,1.2-2.9,3-4.7,4-1.8,1-3.5,2.1-5.3,2.9-1.9,1-3.7,2.2-5.6,3.1-2,.9-4.4.8-6.4,1.5-2,.8-4,1.4-6.1,2.1-2,.7-3.8,2.2-5.9,2.8-2.1.6-4.7,0-6.8.4-2.1.5-4,1.5-6.2,2-2.1.5-4,1.8-6.1,2.2-2.2.4-4.6,0-6.8.5-2.2.4-4.6,0-6.8.2s-4.2,1.1-6.5,1.4c-2.2.3-4,1.8-6.3,2.1-2.2.3-4.9-.9-7.1-.6-2.4.4-4.8,1.1-7,1.8-2.3.7-4.2,2.4-6.4,3.2-2.2.9-4.4,1.8-6.7,2.6-2.2.8-4.3,2.2-6.6,2.9-2.1.7-4.2,1.3-6.3,1.9-2.1.6-4.5.6-6.6,1.2-2.1.6-4.2,1.4-6.3,2-2.2.6-4.2,1.4-6.3,2-2.1.6-4.5.7-6.6,1.3-2.1.6-4.3,1.1-6.4,1.8-2.1.7-4.2,1.3-6.3,2.1s-4.1,1.8-6.1,2.7c-1.8,1-3.4,2.3-4.6,4.1-1.1,1.8-1.3,4.6-2.4,6.6-1,1.9-2.2,3.9-3.7,5.3-1.7,1.4-3.4,2.9-5.4,3.8-2,.9-4.5.5-6.7,1-2.1.5-4,1.7-6.2,2.1-2.2.4-4.7,0-6.8.3-2.3.4-4.7.6-7,1s-4.2,2.1-6.5,2.5c-2.3.4-4.6.8-6.9,1.3-2.3.5-4.7.6-7,1.1-2.3.5-4.8.5-7,1.1-2.2.6-4.5,1.2-6.7,1.9-2.2.7-4.1,2.2-6.3,2.9-2.4.8-5.5.3-7.8,1.3-2.3,1.1-3.8,3.9-6.1,5-2.3,1.1-5,1.5-7.3,2.5-2.4,1-4.6,2.5-7.1,3.2-2.3.5-4.7.7-6.8,1.4-2.2.7-4.3,1.6-6.4,2.6-2.1.9-4.1,2-6.1,3.2s-4.4,1.5-6.3,2.8c-1.9,1.2-3.4,3.3-5.2,4.7-1.8,1.4-4.3,1.8-6.1,3.3-1.8,1.5-2.6,4.3-4.4,5.9-1.5,1.4-3.4,2.7-5.2,4.2-1.6,1.5-3.4,2.8-5,4.4-1.7,1.6-3.4,3.1-4.7,4.9-1.5,2-2.3,4.5-3.1,6.6-1,2.6-2.4,5-1.6,7.9.6,2.6,3.1,5.1,5.7,8,1.8,2,3.9,4.1,6.8,6.2,2.1,1.6,4.6,2.9,7.5,4.5.7.5,1.5,2.9.8,3.1-2,.7-5.5-1.2-8.2-1.6-2.7-.5-5.3-.2-8-.7-2.7-.5-5.6-1.9-8.3-2.4-2.7-.5-5.5-1.4-8.2-1.9-2.7-.5-5.2.7-7.9.2-2.7-.5-5.6-1.9-8.3-2.5-2.7-.5-5.5-1.4-8.2-1.9-2.7-.5-5.4-.7-8.1-1.2-2.7-.5-5.5-1.5-8.2-2-2.7-.5-5.4-1.2-8.2-1.7-2.2-.4-4.4.6-6.7-.3-2.3-.9-4.6-2.2-6.9-3.6-2.8-1.9-5.1-4.4-7.2-6.4-2.6-2.5-4.7-4.9-6.2-7.4-1.8-3-3.5-6-4.1-8.9-.6-3,.5-5.6,1-8.4.5-2.5.3-5.9,1.6-8.2,1.2-2.1,3.6-3.2,5.3-5,1.6-1.7,3.1-3.8,5.1-5.2,1.8-1.4,3.5-2.8,5.4-4.1,1.9-1.2,3.7-2.6,5.6-3.7,2-1.1,4.2-1.5,6.3-2.5,2-.9,4.2-1.6,6.3-2.4,2.1-.8,3.9-2.2,6-2.9,2.1-.8,4.1-1.7,6.2-2.4,2.7-.8,5.7-.9,7.6-2.8,1.9-1.9,2.2-5.6,3.6-8.1,1.4-2.5,3.7-4.2,5.1-6.7,1.2-2.3,2.4-4.5,4.1-6.2,1.7-1.8,3.8-2.7,5.8-4.1,2-1.3,3.8-2.7,6-3.8,2.1-1.1,4.3-2,6.4-3,2.1-1,3.7-3.2,5.7-4.4,2.1-1.1,4-2.4,5.9-3.8,2.3-2,3.9-3.4,4.6-5,1.4-3.1.4-4.8-2.1-6.6-1.8-1.2-4.1-2.3-6.9-3.1-2.2-.6-4.7-1.9-7.2-2.3-2.5-.4-5-.6-7.2-.8-2.9-.2-5.3,1.2-6.9,1.2-2.4.1-5.1-1.2-7.5-1-2.4.2-4.6,1.4-7,1.6-2.4.2-4.8.3-7.2.4-2.4,0-4.8.5-7.3.4-2.4,0-5-1.6-7.4-2-2.6-.4-5.1-.4-7.6-.6-2.5-.2-5,.6-7.5.5-2.5,0-5.2-1.1-7.7-.9-2.5.2-5,.7-7.4,1-2.4.4-4.6,1.9-7,2.5-2.4.6-4.7,1.3-7,2.1-2.1.6-4.4.9-6.6,1.5-2.1.7-4.6.5-6.7,1.4-2.1.9-3.7,2.6-5.5,3.9-1.8,1.3-3.9,2.3-5.3,4.1-1.4,1.7-2.8,3.6-3.7,6-1.2,2.6-2.1,5.4-3.9,7.2-1.9,1.8-4,3.5-6.3,4.8-2.2,1.3-4.9,1.9-7.2,3-2.3,1.2-4.3,2.9-6.5,4.2-2.2,1.3-4.9,2-6.7,3.8-1.8,2.3-2.7,4.5-3.6,6.2-1.4,2.6-2.9,4.3-3.5,6.3-.7,2.2-1.5,4-3.1,6.4-1,1.6-1.7,4.1-3.7,6.1-1.4,1.4-2.9,3.2-5,4.9-1.6,1.6-4.1,2.3-5.4,4.2-1.3,1.9-2.2,4.3-3.1,6.5-.9,2.2-.7,5.1-1.2,7.6-.8,3.7-.7,8.2-2.1,11.4-1.4,3.3-4.7,3.7-7.2.5-1.6-2.3-2-4.6-2.1-7.1,0-2.5,0-5,.3-7.2.4-2.7.5-5.6,1.4-7.9.9-2.4,2.8-4.1,4.1-6.2,1.3-2.1,2.7-4.1,4.3-5.9,1.5-1.9,2.4-4.5,4-6.4,1.9-2.1,3.5-3.9,4.1-6.6.7-2.7,1-5.6,1.3-8.5.3-2.9,0-6.2.8-8.8.8-2.1,2.9-3.4,4.1-5.3,1.1-1.9,1.9-4.1,3.2-5.9s2.2-3.9,3.4-5.7c1.5-2.2,4-3.5,5.6-5.7,1.5-2.2,2.2-5.1,3.9-7.2,1.6-2.1,4.1-3.2,6-5.1,1.7-1.7,3.1-3.8,5-5.3,1.9-1.5,3.8-2.9,5.8-4.3,2-1.4,4.2-2.3,6.2-3.6,2-1.3,4-2.7,6-4,2-1.3,3.5-3.5,5.6-4.8,3-2,6.5-3.2,8.8-5.9,1.9-2.3,2.6-5.7,4-8.5,1.4-2.8,3.5-5.1,5.5-7.3,1.8-1.6,3.7-2.8,5.6-4.2,1.9-1.3,3.6-3.1,5.7-4.2,2.1-1.1,4.3-2,6.5-2.8,2.2-.8,4.3-2,6.5-2.6,2.2-.6,4.6-1.1,6.9-1.5,2.3-.4,4.7-.6,7-.9,2.3-.3,4.8.5,7.2.3,2.3-.2,4.6-.7,6.9-.9,2.4-.2,4.6-1,6.9-1.2,2.4-.2,4.7-.7,7-.9,2.4-.2,4.7-.4,7.1-.6,2.4-.2,4.8.3,7.2.2,2.4-.1,4.6-1.2,7-1.3,2.4,0,4.8.8,7.2.8,2.4,0,4.7.6,7.1.7,2.5.4,5.1.4,7.5.5,2.5,0,5-.2,7.4-.4,2.5-.2,4.9-.7,7.3-1.1s4.6-1.6,7-2c2.4-.5,4.9-.3,7.3-.7,2.4-.4,4.8-.7,7.2-1,2.4-.3,4.8-.7,7.2-.8,2.4,0,4.9-.8,7.4-.6,2.6.2,5.3,1.3,7.9,1.6,2.6.3,5.2.7,7.8.8,2.6.2,5.2,0,7.7-.2,2.6,0,4.9-.9,7.5-1.3,2.4-.5,5.1.5,7.5,0,2.4-.5,4.4-2.1,6.7-2.8,2.3-.6,4.6-1.2,6.9-2,2.3-.8,4.5-1.6,6.7-2.5,2.2-1,4.3-2.1,6.4-3.3.2.2,2.5-1,5-2.9,1.5-1.2,3-2.8,4.5-3.8,2.8-2,4.6-3.1,3.4-.5-1.3,2-2.8,3.7-4.4,5.5-1.5,1.8-3.4,3.1-5,4.7-1.7,1.6-2.4,4.5-4,6.1-1.7,1.6-3.6,2.9-5.2,4.5-1.7,1.7-3.3,3.3-4.8,5-2.4,3.6-.4,5.8,2.7,6.6,2.6.8,6.1.6,7.9.4,2.3-.3,4.3-1.5,6.6-1.9s4.5-.7,6.7-1.3c2.2-.6,4.5-.8,6.7-1.5,2.2-.7,4.2-1.7,6.3-2.5,2.1-.8,4.2-1.7,6.3-2.5,2.1-.9,4.3-1.5,6.3-2.4,2-.9,3.7-2.6,5.7-3.6,2.1-1.2,4.7-1.2,6.7-2.5,2-1.3,3.2-3.9,5.1-5.4,1.9-1.4,3.8-2.8,5.7-4.3,1.9-1.5,3.8-2.8,5.6-4.4,1.8-1.6,4.2-2.4,5.9-4.1,1.7-1.7,3.4-3.5,5-5.3,1.4-1.6,2-3.9,3.1-5.8,1.1-1.9,1.6-4,2.4-6.1.8-2,2.2-3.7,2.8-5.9.6-2.1,1.9-4,2.5-6.2.7-2.4.5-5.2,1.2-7.6.6-2.4,1.8-4.8,1.8-7.3,0-2.3-1.2-4.5-1.8-6.8-.6-2.2-.5-4.5-1-6.7-.4-3.7-.4-6.1.3-7.9.9-2.5,2.4-4.5-.2-7.8-1.1-1.4-3.3-2.9-6-5.1-1.9-1.2-3.8-2.3-5.4-3.8-1.6-1.5-3.5-2.9-4.9-4.6-1.4-1.8-2.1-4.2-3.3-6.1-1.2-1.9-1.9-4.1-3-6-1.1-1.9-2.4-3.8-3.5-5.7-1.2-1.9-3.3-3.2-4.7-5-1.4-1.8-2.8-3.5-4.3-5.2-1.5-2-3-3.8-4.4-5.6-1.5-2-2.1-4.6-3.6-6.3-1.5-1.8-3.3-3.4-5-5-1.7-1.5-3.4-3.1-5.4-4.4-1.8-1.2-3.8-2.5-5.9-3.5-2-1.1-4.3-1.6-6.1-3-1.8-1.4-3.8-2.6-5.3-4.3-1.6-1.6-2.2-4.1-3.5-6-1.3-1.9-2.8-3.5-3.8-5.6-1-2-2.4-3.9-3.1-6-.7-2.1-1.4-4.3-1.8-6.6-.4-2.2-.1-4.6-.3-6.8-.1-2.2.3-4.5.4-6.8.1-2.2.4-4.5.8-6.7.4-2.2.7-4.4,1.3-6.6.6-2.2,1.1-4.4,1.9-6.5.8-2.1,1.3-4.4,2.3-6.4,1.1-2,2.6-3.9,3.9-5.8,1.3-1.9,2.7-3.8,4.2-5.6,1.5-1.8,3.3-3.3,5-4.9,1.7-1.6,3.3-3.3,5.2-4.6s4.3-1.8,6.3-2.9c2-1.1,3.9-2.6,6-3.5,2.1-1,4.1-2.2,6.2-3,2.5-.9,5.3-.7,8-1.3,2.6-.6,5.3-1.5,7.8-2.5,2.5-1,5.1-2.5,7-4.6,1.6-2,2.3-4.2,3.5-5.7,1.5-1.9,3.3-3.3,4.9-4.7,1.6-1.4,3.6-2.1,5.9-3.2,1.8-.9,3.6-2.2,6.1-3,2.3-.8,4.4-2.1,6.6-3.2,2.2-1,4.5-2,6.5-3.3,2.1-1.3,3.8-3,5.8-4.5,1.9-1.5,4.1-2.7,5.9-4.3,1.8-1.6,3.9-3,5.6-4.8,1.7-1.8,3.3-3.6,4.8-5.4,1.2-1.7,2.4-3.7,3.4-5.7,1-1.9,1.5-4,2.2-6,.7-2,1.3-4.1,1.4-6.1.2-2,.3-4.2,0-6.1-.7-2.2-2.5-3.9-4.1-5.6-1.6-1.7-3.4-3.1-4.4-5.1-.8-2.2-1.5-4.1-2.5-5.6-1.4-2-2.8-3.5-4.6-4.3-2-.9-4.5-1.2-7-1-2.2.2-4.5,1.5-7,2.3-2.2.8-4.8.9-7.1,2-2.2,1-4.1,2.8-6.3,3.8-1.7.8-3.7,1.7-5.8,2.9-1.8,1-3.3,2.6-5,3.9-1.8,1.3-4.2,2.1-5.5,3.6-1.5,1.7-1.7,3.7-1.9,5.5-.3,1.7.2,3,1.6,4.7,1.2.8,2.7,1.1,4.6,1.4,1.8.3,3.2,1.4,4.5,2.3,2.3,1.7,2.5,3.7,1.8,6.3-.7,2.4-2.4,4.9-3.2,7.2-.7,1.7-.2,3.7-.8,5.5-.5,1.8-1.6,3.5-2.2,5.3-.6,1.8-1.1,3.6-2,5.3-1.1,1.9-2,3.9-3.4,5.4-1.5,1.6-3.6,2.6-5.3,3.9-1.8,1.3-3.4,2.7-5.4,3.7-1.9,1-3.9,2-6,2.8-2,.8-4.1,1.5-6.2,2.2-2.1.7-4.2,1.5-6.3,2.1-2.1.6-4.5.2-6.5.8-2.2.6-4.3,1.2-6.3,1.9-2,.5-3.9,1.8-6,2.5-2,.7-4,1.4-6.1,2.1-2.1.6-4.1,1.6-6.2,1.9-2.1.4-4.4.5-6.4.4-2-.1-4-.8-6-1.6-1.6-.9-2.2-2.6-2.8-4.1-.7-1.7-1.4-3.2-2.9-3.9-2.1-.2-4,.6-5.8,1.7-1.7,1.1-3.7,2.1-5.3,3.4-1.7,1.4-3,3-4.8,3.8-1.9.9-3.7,2.1-5.8,2.8-2,.7-3.9,1.6-6,2.3-2,.7-4.4.4-6.3,1.3-1.9.9-3.7,2.2-5.3,3.6-1.6,1.7-3.2,3.5-4.9,5.2-1.7,1.7-3.1,3.7-4.8,5.4s-3.3,3.4-5,5.2c-1.7,1.8-3.1,3.6-4.6,5.4-1.5,1.9-3.2,3.5-4.5,5.5s-2.3,4-3.1,6.2c-.8,2.1-1.2,4.2-1.6,6.6-.5,2.4-1.2,4.7-1.1,7,.1,2.4.4,4.7,1.1,6.8.7,2.2,2.3,3.9,3.5,5.9,1.2,1.9,1.6,4.6,3.3,6.2,1.6,1.6,3.6,3.1,5.5,4.5,1.9,1.3,4.1,2.4,6.2,3.5,2.1,1,4.5,1.6,6.8,2.4,2.2,1,4.3,2.1,6.5,2.9s4.5,1.8,6.7,2.5,4.7,1,7,1.8c2.3.8,4.5,1.5,6.7,2.4,2.2,1,4.4,2.1,6,3.7,1.6,1.6,2.4,4.2,3.9,6,1.5,1.8,3.4,3.3,5,5,1.6,1.7,3.5,3,5.6,4.1,1.7,1.2,3.6,2.2,5.4,3.2,1.8,1,3.6,2.2,5.4,3.2,1.8,1,3.3,2.8,5.1,3.8,1.8,1.1,4.2,1.1,5.9,2.4,1.7,1.3,2.4,3.8,3.8,5.4,1.5,1.5,3.5,2.5,4.8,4.4,1.2,1.8,1.6,4.1,2.6,6.2.9,2,3,3.7,3.6,5.9.6,2.2.2,4.7.3,7,0,2.3,0,4.6-.6,6.8-.6,2.2-2,3.7-3.3,5.5-1.2,1.7-2,4-4,5.2-1.5.6-2.1-1.2-.8-3.3,1.7-2,3.5-3.7,4.2-6,.8-2.5.7-5.1.5-7.7-.2-2.5,0-5.3-.8-7.8-.9-2.3-2.8-4.3-4.2-6.4-1.4-2-2.6-4.4-4.3-6.1-1.7-1.8-3.5-3.5-5.5-4.5-2-1.1-4.4-1.4-6.6-2-2.2-.6-4.4-1.1-6.6-1.6-2.2-.5-4.3-1.4-6.4-2.2-2.1-.8-4.3-1.3-6.2-2.7-2.1-1-3.9-2.2-5.3-3.8-1.5-1.6-3-3.3-4.1-5.1-1.2-1.9-2.3-3.7-3.5-5.5-1.2-1.8-2.4-3.6-4-5-1.6-1.3-3.1-3.2-5.4-3.7-2.3-.6-4.7-.6-7.1-1.1-2.3-.5-4.7-.8-7-1.3-2.3-.5-4.7-.8-7-1.3-2.3-.5-4.7-.9-7-1.5-2.3-.6-4.2-2.1-6.5-2.9-2.2-.8-4.9-.6-7-1.6-1.9-.8-4-1.6-5.9-2.6-1.8-1-3-3-4.8-4.2-1.7-1.2-3.3-2.5-4.9-3.8-1.6-1.3-3.7-2.2-5.1-3.6-1.4-1.5-2.9-3-4.1-4.7-1.2-1.7-1.5-3.9-2.4-5.7-.9-1.9-2.1-3.5-2.6-5.5-.4-2-1-4.1-.9-6.2.8-2.8,1.5-5.1,1.9-6.9.6-3.3.2-5-.3-6.5-.6-1.9-1-3.6-2.2-6.2-.8-1.5-2.3-3.3-3-6.1.2-2.2,1-4.4,1.5-6.5.5-2.1,2-4.1,2.8-6.1.8-2,1.9-4,3.1-5.9,1.1-2,1.7-4.1,3-6,1.4-1.8,2.3-4,3.9-5.7,1.6-1.7,3.3-3.4,5-5,1.7-1.6,4.1-2.7,5.9-4.2,1.9-1.5,4.1-2.5,6-3.9s3.8-2.8,5.9-4c2.1-1.2,3.6-3.2,5.8-4.4,2.1-1.1,4.9-1.1,7-2,2.4-.9,3.9-2.8,5.5-4.2,1.8-1.5,3.1-3.2,4.5-4.8,1.4-1.7,2.9-3.4,4.4-5,1.5-1.5,3.3-2.8,5.6-3.8,2.4-.9,4.6-.7,7-.6,2.4,0,4.7.5,7,.6,2.4.1,5.1-.1,7.4-1,2-.9,3.9-2.5,5.7-3.9,1.7-1.3,3.5-2.8,5-4.4,1.5-1.6,2.4-3.5,3.6-5.3,1.2-1.7,2.6-3.4,3.6-5.2,1-1.9,1.7-3.8,2.4-5.6.7-2,1.4-3.9,1.7-5.7.3-1.9-.2-3.6-.4-5.4-.2-1.8.5-3.9-.2-5.5-.8-1.6-2.7-2.6-4.1-3.8-1.3-1.2-3.1-1.9-5-2.6-2-.8-4.2-1.3-6.4-2-2.1-.6-4.2-1.2-6.5-1.7-2.2-.5-4.3-1.2-6.6-1.5-2.3-.3-4.4-1.4-6.8-1.5-2.5-.1-5.2.9-7.8,1.1-2.6.2-5.1,0-7.7.2-2.6.3-5.1.7-7.7.9-2.6.2-5.3,1.1-7.9.9-2.5-.2-4.9-1.2-7.4-1.7-2.4-.6-4.8-1.2-7.3-1.6-2.5-.4-5.1-.2-7.8,0-2.4.3-4.7.8-7.1,1.2-2.4.4-4.8.4-7.2,1-2.4.5-4.9.5-7.3,1.2-2.4.7-4.5,2.2-6.8,3-2.4.8-4.8,1.2-7.1,2.1-2.3.8-4.8,1.5-7.1,2.4-2.3.9-4.8,1.5-7.1,2.5-2.3,1-4.4,2.2-6.6,3.3-2.2,1-4.5,2-6.8,3.1-2.2,1.1-3.9,3-6.1,4.1-2.2,1.2-4.7,1.9-6.8,3.1-2.2,1.3-4.6,2.5-6.7,3.9-2.1,1.4-3.6,3.4-5.6,4.9s-4.1,2.9-6.1,4.5c-2,1.6-3.9,3.1-5.8,4.7-1.9,1.6-4.2,2.9-6.1,4.5-1.9,1.6-3.8,3.2-5.7,4.9-1.9,1.7-3.3,3.6-5.1,5.2-1.9,1.7-4,3.1-5.9,4.7-1.9,1.6-4.2,2.9-6.1,4.5-1.9,1.4-2.9,3.7-4.9,5.1-2,1.4-4.9,1.9-6.9,3.3-2,1.4-3.9,2.9-5.9,4.3-2,1.4-3.1,3.6-5,5.1-1.9,1.5-4.5,2.4-6.3,4-1.8,1.6-3.9,3-5.6,4.6-1.7,1.7-2.8,3.6-4.2,5.4-1.4,1.8-3.1,3.5-4.2,5.4-1.1,1.9-.7,3.9-1.4,6-.1,2.4,0,4,1.4,4.9,1.5,1,3.9,1.2,6.3,1.4,2.2.2,4.4.5,6.7.6,2.4.1,4.6.3,6.4.9,2.8.9,4.4,2.1,5.6,3.6,1.5,1.7,2.4,3.5,2.2,5.8-.2,2.1-1,4.3-2.2,6.6-1,2.1-2.3,4.2-3.8,6.3-1.5,2.1-3.2,4-4.7,5.9-1.8,2.2-3.4,4.2-4.8,5.9-1.6,1.8-3.9,3.1-5.5,4.9-1.7,1.8-2.4,4.2-4.2,5.8-1.8,1.7-4,3-6,4.5-1.9,1.5-4.2,2.5-6.3,3.8-2.1,1.3-3.8,3.1-5.9,4.3-2.1,1.2-4.1,2.7-6.3,3.9-2.2,1.2-4.6,2-6.7,3.2-2.1,1.3-4.3,2.6-6.4,4-2.1,1.3-4,3.1-6.1,4.4-2.2,1.3-4.4,2.5-6.6,3.8s-4.4,2.5-6.7,3.7c-2.2,1.2-4.3,2.7-6.5,3.9-2.2,1.2-4.6,2.3-6.8,3.4s-4.8,1.8-7.1,3c-2.3,1.2-4.2,3-6.5,4.1-2.3,1.1-5,1.5-7.3,2.6-2.3,1.1-4.4,2.6-6.8,3.7-2.3,1-5,1.5-7.3,2.5-2.4,1-4.6,2.3-7,3.3-2.4,1-4.8,1.9-7.2,2.9-2.4.9-4.6,2.5-7,3.4-2.5,1-4.9,2-7.4,2.9-2.5,1-5.2,1.3-7.7,2.2-2.5,1-5.1,1.7-7.6,2.6-2.5.9-4.8,2.3-7.4,3.2-2.5.9-5.4,1-7.9,2-2.5.9-4.8,2.5-7.3,3.3-2.6.9-4.9,2.3-7.5,3.2-2.6.8-5.3,1.3-7.9,2.1-2.6.8-5.4.9-8,1.7-2.5.5-4.9,1.2-7.4,1.6-2.5.4-5,1.3-7.5,1.7-2.5.5-5.1.6-7.6,1.2-2.5.6-5,1.1-7.5,1.8-2.4.7-4.8,1.8-7.2,2.8-2.7.9-5.7,1.2-8.5,2.1-2.7.9-5.5,1.8-8.2,2.7-2.8.9-5.2,2.5-8,3.3-2.8.9-5.5,1.9-8.3,2.7-2.8.8-5.9.8-8.7,1.6-2.8.8-5.5,1.9-8.3,2.7-2.5.7-5.1,1.2-7.7,1.8-2.5.7-5.1,1.2-7.7,1.9-2.6.7-4.7,2.4-7.3,3.1-2.5.7-5.3.8-7.8,1.5-2.5.7-5.1,1.3-7.7,2.1-2.5.8-4.9,1.9-7.3,2.8-2.5.9-4.9,1.8-7.3,2.8-3,1.1-6.3,2.1-9.2,3.4-2.9,1.3-5.9,2.5-8.9,3.7-4.1,1.6-6,.6-6.3-1.9-.2-1.6-.3-3.3-.1-5,.2-1.7,1-3.3,2-4.9,1-1.6,2.3-2.8,4.5-4,2.4-1.1,4.5-2.7,7-3.7,2.5-1,5.2-1.7,7.8-2.6,2.6-.9,5-2,7.7-2.8s5.3-1.4,7.9-2.1c2.6-.7,5.1-1.9,7.8-2.6,2.6-.6,5.5-.5,8.2-1,2.7-.6,5.2-1.8,7.8-2.4,2.7-.5,5.5-.2,8.1-.7,2.7-.5,5.3-1.2,8-1.6,2.7-.5,5.2-1.4,7.9-1.9,2.6-.5,5.3-.9,7.9-1.4,2.6-.5,5.2-1.2,7.9-1.7,2.6-.5,5.4-.4,8-.9,2.6-.6,5.2-1.2,7.6-2.2,2.4-.9,4.5-2.5,6.8-3.6,2.3-1.1,4.8-1.9,7.2-3,2.3-1.1,4.6-2.2,7-3.2,2.5-.9,5-1.5,7.6-2.3,2.5-.8,4.8-2.5,7.3-3.2,2.6-.7,5.2-1,7.8-1.7,2.6-.6,5.1-1,7.7-1.6,2.6-.6,5.2-.6,7.8-1.3,2.6-.6,5-2.2,7.6-2.9,2.6-.7,5.3-1.1,7.8-1.8,2.6-.7,5.3-1,7.8-1.8,2.6-.8,5-1.9,7.5-2.8,2.5-.8,4.9-2,7.4-2.9,2.5-.9,4.9-1.9,7.4-2.9,2.5-1,5.3-1.2,7.7-2.2,2.4-1,4.8-2.2,7.2-3.3,2.4-1,4.8-2.1,7.2-3.2,2.4-1.1,4.6-2.6,6.9-3.7,2.4-1.1,4.9-2,7.2-3.2,2.3-1.2,4.8-2.2,7.1-3.4,2.3-1.2,4.4-2.8,6.7-4.1,2.3-1.3,4.3-2.9,6.6-4.2,2.3-1.3,5.2-1.6,7.4-3s4.4-2.8,6.6-4.2c2.2-1.4,4.3-2.8,6.5-4.2,2.2-1.4,4-3.2,6.2-4.6,2.2-1.4,5-2.1,7.1-3.5,2.1-1.4,4.3-2.9,6.4-4.3,2.1-1.5,3.2-3.9,5.3-5.4,1.3-1,3.6-2.4,5.9-4.4,1.7-1.5,3.9-2.8,5.7-4.6,1.8-1.7,3.8-3.3,5.2-5,1.6-2,2.1-4.2,2.6-6.1.6-2.2,1-4.6-.9-6-2.7-.8-5.9.8-8.9,1.6-2.8.8-5.9,1.4-8.8,1.7-2.8.7-5.2,0-7.6-.6-2.5-.6-5.1-1.3-6.3-3.1-1.1-1.7-.6-3.9.3-6.4.7-2.4,1.3-4.8,3-6.9,1.7-2.1,4.4-3.7,6.4-5.7,2-2,3.2-4.5,4.9-6.5,1.9-2.2,3.1-4.5,4.4-6.9,1.4-2.4,2.6-4.7,4.1-7,1.2-2.2,3.8-3.7,5.5-5.5,1.9-1.8,3.8-3.4,6.1-5,2.2-1.5,4.3-3.2,6.7-4.6,2.4-1.4,4.9-2.6,7.2-4,2.4-1.4,4.3-3.3,6.4-4.9,2.1-1.8,3.4-3.9,4.9-6,1.5-2,3.2-4,4.6-6.1,1.4-2.1,3.4-4,5.1-5.9,1.6-1.7,3.7-3.1,5.5-4.7,1.8-1.6,3.6-3.1,5.6-4.6,1.9-1.5,3.7-3.2,5.7-4.6s4-2.8,6.1-4.2c2.1-1.4,4.4-2.5,6.4-3.9,2.1-1.2,3.6-3.1,5.7-4.4,2.1-1.3,4.2-2.5,6.2-3.8,2-1.3,3.9-2.8,5.9-4.1,2-1.3,4.6-2.1,6.6-3.5,2-1.4,3.5-3.1,5.4-4.5s4.2-2.5,6.1-3.9c1.9-1.4,3.2-3.3,5.1-4.7,1.9-1.4,3.9-2.7,5.8-4.1,1.9-1.4,3.5-3,5.4-4.4,2.1-1.4,4.6-2.5,6.7-3.9,2.1-1.4,4.7-2.3,6.9-3.7,2.1-1.4,4.4-2.6,6.5-3.9,2.1-1.4,3.4-3.6,5.6-4.9,2.1-1.3,5.1-1.8,7.3-3.2,2.2-1.3,4.3-2.7,6.5-4,2.2-1.3,3.8-3.2,6-4.5,2.2-1.3,4.9-1.9,7.1-3.2,2.2-1.2,4.5-2.4,6.7-3.6,2.3-1.2,4.2-2.8,6.5-3.9,2.3-1.1,4.7-2.1,7-3.1,2.4-1.1,4.9-1.9,7.5-2.6,2.6-.7,5.2-1,7.8-1.5,2.6-.5,5.1-1.8,7.6-2.4,2.6-.6,5.1-1.2,7.6-2.1,2.4-.9,4.9-1.8,7.1-3.2,2-1.2,4.2-2.2,6.3-3.4,2.1-1.1,4.3-2,6.5-3,2.2-1,4.2-2.2,6.5-3.1,2.2-.9,4.2-2.4,6.5-3.2,2.3-.8,4.7-1.4,7-2.1,2.3-.7,4.8-1,7.1-1.6,2.3-.6,4.7-1,7-1.5,2.4-.5,4.8-.5,7.1-1,2.4-.5,4.7-1.2,7-1.6,2.4-.4,4.6-1.3,6.9-1.9,2.3-.6,4.7-.9,6.9-1.7,2.2-.8,4.5-1.6,6.6-2.6,2.2-.9,4.2-2.1,6.2-3.2,2.1-1,3.9-2.4,6-3.5,2-1.1,3.8-2.5,5.8-3.7,2-1.2,4-2.3,5.9-3.5,1.9-1.2,3.9-2.4,5.8-3.7,1.9-1.3,4.4-1.9,6.3-3.2,1.9-1.3,3.8-2.5,5.7-3.8,2.4-1.5,4.8-3,7.3-4.3,2.6-1.3,5.1-2.7,7.3-4.3,1.9-1.4,3.3-3.1,4.8-4.8,1.5-1.7,2.9-3.4,4.4-5,1.6-1.6,3.2-3.3,5-4.8,1.8-1.5,4.3-2.4,6.2-3.7,1.9-1.4,3.6-2.9,5.6-4.1,2-1.3,4-2.5,6.1-3.7,2.1-1.2,4.3-2,6.5-3.1,2.2-1.1,3.8-3,6-3.9,2.2-1.1,4.8-1.4,7-2.5,2.2-1,4-2.9,6.2-3.9,2.2-1,4.8-1.4,7-2.3,2.2-1,4.5-1.8,6.8-2.8,2.3-.9,4.7-1.4,7-2.3,2.3-.9,4.3-2.4,6.6-3.2,2.3-.8,4.5-1.8,6.8-2.6,2.3-.8,4.8-.9,7.1-1.6s4.5-2,6.9-2.6c2.3-.6,4.8-.8,7.1-1.3,2-.6,4-1.3,6-1.9s4.2-.5,6.2-1.2c2-.7,4-1.5,5.9-2.3,1.9-.8,3.7-2,5.6-3,1.9-1,4-2.2,6-3.5,1.9-1.2,3.7-2.6,5.6-4.1,1.8-1.4,3.7-2.8,5.3-4.4,1.6-1.6,2.4-3.8,3.8-5.5,1.4-1.8,2.9-3.4,3.8-5.3,1-1.9,2.5-3.8,3-5.8s-.3-4-.6-6.1c-.2-1.9-1-3.6-2-5.5-1-2-1.6-4.2-3.1-5.9-1.5-1.7-3.6-3-5-4.7-1.5-1.7-3.2-3.6-3.9-5.7-.5-2.1.6-4.5.6-6.6,0-2.2-.1-4.3.2-6.5.4-2.2.5-4.4,1.3-6.5.7-2.1,1.4-4.3,2.5-6.4,1-2,2.8-3.8,4-5.8,1.3-1.9,2.2-4.1,3.7-5.9,1.5-1.8,3.2-3.5,4.9-5.2,1.7-1.7,3.7-3.1,5.5-4.6,1.8-1.6,3.2-3.7,5.1-5.1,1.9-1.5,4.1-2.8,6.1-4.1,2.1-1.3,4-2.8,6.2-4,2.1-1.2,4.6-1.9,6.8-2.9,2.2-1.1,4.3-2.5,6.5-3.5,2.2-1,4.4-2.2,6.7-3.1,2.2-1,4.4-2.1,6.7-3.1,2.2-1,4.7-1.5,7-2.5,2.2-1.1,4.4-2.3,6.5-3.5s4-2.9,6.1-4.2c2.1-1.4,4.7-2,6.6-3.5,1.7-1.6,3.5-3.2,5.1-5,1.5-1.8,2.2-4.4,3.7-6.2,1.5-1.8,3.1-3.6,4.8-5.3,1.6-1.7,3.7-3,5.6-4.4,1.8-1.4,3.7-2.8,5.6-4.2,1.9-1.3,4-2.2,6-3.6,1.9-1.3,3.8-2.7,5.7-4.1,1.9-1.3,3.5-3.1,5.4-4.5,1.9-1.4,3.9-2.6,5.7-4.1,1.8-1.5,3.3-3.5,4.9-5.1,1.7-1.7,4-2.7,5.5-4.6,1.5-1.9,2.7-4.1,3.9-6.2,1.2-2.1,2.4-4.3,3.2-6.7.8-2.3.4-5,.8-7.5.3-2.4,1-4.8.9-7.5-.1-2.5-.1-5.1-1-7.2-1-2.2-3.1-3.5-4.7-5.1-1.6-1.6-3.5-2.4-5.5-3.3-2-.9-3.9-2.8-6.1-2.8-2.1,0-4.1,1.3-6.2,2.1-2.2.5-4.3,1.4-6.5,2.1-2.2.7-4.3,1.5-6.5,2.2-2.2.7-4.5.8-6.8,1.5-2.2.6-4.3,1.8-6.6,2.3-2.2.5-4.6.3-6.9.5-2.3.2-4.6,0-6.9-.2-2.5.1-5,.2-7.5-.3-2.4-.5-4.8-1.8-7.2-2.6-2.4-.8-4.8-1.8-7.2-2.6-2.4-.8-5-1.3-7.5-1.8-2.5-.5-5-.9-7.6-.8-2.4.4-4.7.4-7.1.4-2.4,0-4.8,1.3-7.2,1-2.4-.3-4.9-.9-7.3-1.4-2.4-.5-4.5-2.4-6.9-3.1-2.5-.6-5.2.3-7.7-.1-2.5-.4-5-1.4-7.6-1.6-2.6-.2-5.1.3-7.7.1-2.6-.1-5.2-1.6-7.7-1.7-2.5,0-4.9.6-7.3.8-2.4.2-4.8.8-7.1,1.2-2.4.4-4.6,1.3-6.9,1.8-2.4.5-4.9.5-7.2,1.1-2.3.6-4.3,1.9-6.6,2.7s-5.1.1-7.4.9c-2.2.8-3.9,2.8-6.2,3.6-2.2.9-4.6,1.4-6.8,2.3-2.2.9-4.2,2-6.5,3-2.2.9-4.8,1-7.1,1.9-2.2.9-3.9,2.8-6.1,3.7-2.2.9-4.4,1.8-6.7,2.6-2.2.8-5,.6-7.3,1.3-2.3.8-4.6,1.4-6.9,2.1-2.3.7-4.7,1.2-7,1.8-2.4.6-4.8,1.1-7.2,1.6-2.4.9-4.6,2.2-6.8,3.3-2.3,1.1-4.4,2.3-6.6,3.4s-3.8,3.1-5.9,4.3c-2.1,1.2-4.6,2-6.8,3.2-2.1,1.2-4.2,2.6-6.3,3.8-2.1,1.2-4.5,2.2-6.7,3.4-2.2,1.2-4.7,1.9-6.9,3-2.3,1.1-4,3-6.3,4.1-2.3,1-5,1.6-7.4,2.6-2.4,1-4.7,2-7.2,3-2.4.9-4.9,1.8-7.4,2.7-2.5.9-4.7,2.2-7.2,3-2.5.8-5.4,1-7.9,1.8-2.5.8-5.1,1.5-7.7,2.3-2.5.8-5.2,1.4-7.8,2.1-2.5.8-4.5,2.7-7,3.5-2.5.8-5.1,1.6-7.6,2.5-2.5.9-5.6.8-8.1,1.8-2.5.9-5,2-7.4,3-2.4,1-4.9,2.1-7.2,3.2-2.4,1.1-4.9,2.1-7.2,3.4-2.3,1.2-4.3,2.8-6.4,4.1-1.9,1.2-4.2,2.2-6.1,3.5-1.9,1.3-3.7,2.7-5.5,4-1.8,1.4-2.7,3.3-4.2,4.8-1.6,1.5-3.8,2.7-5,4.4-1.2,1.6-1.6,3.6-2.3,5.5-1.4,1.2-3.4,2.2-5.4,2.9-1.9.6-4.6.6-6,2.1-1.6,1.7-2.3,3.9-3.6,5.8-1.3,1.9-3,3.7-3.8,5.7-.8,2-.7,4.1-.8,6.2-.1,2.1-.8,4.3,0,6.3,1.1,1.9,3.4,3,5.1,4.1,1.9,1.2,3.9,2.4,6.4,2.8,2.3.4,5,.8,7.6.9,2.5,0,5.1,0,7.7-.2,2.6-.1,5-1.2,7.5-1.4,2.7-.2,5.2-.7,7.6-.6,2.5-.1,5,.8,7.5.6,2.5-.3,4.9-1.1,7.3-1.5,2.4-.4,4.9-.7,7.3-1.3,2.4-.6,4.8-1,7.1-1.7,2.3-.7,4.6-1.5,6.8-2.3,2.2-.8,4.5-1.7,6.6-2.6,2.1-1,3.5-2.8,5.5-3.9,2-1.1,4-2.1,5.9-3.3,2.1-1.4,5-2.3,6.9-3.8,2-1.6,3.8-3.2,5.6-4.9,1.8-1.6,2.6-4,4.3-5.7,1.8-1.7,3.5-3.4,5.3-5,1.8-1.7,3.9-3.1,5.8-4.8s3.7-3.3,5.8-4.8c1.7-1.2,3.5-2.5,5.3-3.5,1.9-1,3.9-1.9,5.9-2.8,2-.9,4.2-1.5,6.1-2.4,2-.9,3.4-2.4,5.3-3.4,2-1.2,4.6-1.8,6.6-3,2-1.2,3.3-3.2,5.3-4.5s4.8-1.6,6.8-2.8c2-1.2,3.6-3,5.7-4.1,2.1-1.1,4.3-2.1,6.5-3.1,2.1-1.1,4.7-1.4,6.9-2.4,2.2-1,3.9-2.8,6.1-3.9,2.2-1.1,4.8-1.5,7-2.6s4.3-2.2,6.5-3.3c2.2-1.1,4.2-2.4,6.3-3.5,2.2-1.1,4.5-1.9,6.7-2.9,2.2-1,4.4-2,6.6-2.9,2.2-.9,4.1-2.6,6.4-3.5,1.1-.3,4.1-.9,7.3-2.3,2.3-1,4.9-1.7,7.1-2.5,3.7-1.3,6.2-2.8,6.7-1.6-1.6,1.9-4.4,2.8-7.3,4-2.8,1.2-5.5,2.7-7.7,3.9-2.2.8-4.8,1.1-6.9,2-2.2.9-4.1,2.3-6.3,3.2-2.2.9-4.3,2-6.4,3-2.1,1-4,2.4-6.1,3.5-2.1,1-4.1,2.2-6.2,3.3-2.1,1.1-4.3,2-6.4,3.1-2.1,1.1-4,2.3-6.1,3.5-2,1.2-4.2,2.1-6.2,3.3-2,1.2-4.4,1.9-6.4,3.2-2,1.2-3.1,3.4-5,4.7-1.9,1.3-4,2.4-5.8,3.8-1.9,1.3-3.7,2.7-5.6,4.1-1.8,1.4-3.6,2.8-5.4,4.2-1.8,1.4-3.6,2.8-5.3,4.2-1.8,1.4-3.8,2.7-5.5,4.1-1.6,1.4-3.5,2.5-5,4s-3,2.9-4.4,4.4c-1.5,1.5-2.7,3.1-4.2,4.5-1.5,1.4-3,2.9-4.7,4.2-1.7,1.4-3.8,2.6-5.6,4-1.8,1.4-3.7,2.7-5.5,4.1-1.8,1.4-4,2.5-5.6,4s-2,3.8-3.6,5.4c-1.4,1.4-3.9,2.4-4.8,4-1,1.6-.4,3.7-1.2,5.4-.8,1.7-2.1,3.2-3,4.8-.9,1.6-2.2,3.1-3.5,4.6-1.8,1.5-3.5,3.1-5.3,4.6-1.8,1.5-3.7,3-5.5,4.5-1.8,1.5-3.5,3.1-5.3,4.6-1.8,1.5-3.9,2.9-5.7,4.4-1.8,1.5-3.6,3-5.5,4.5s-3,3.5-4.9,4.9c-1.9,1.4-4.4,2.5-6.4,3.9-2,1.4-3.6,3.1-5.7,4.4-2.1,1.3-4.3,2.5-6.5,3.8s-4.2,2.6-6.4,3.8c-2,1.1-4.3,2-6.4,3-2,1.1-4.4,1.9-6.5,3-2.1,1.1-3.4,3-5.5,4-2.1,1-4.9,1.3-7.1,2.3-2.2,1-4.1,2.2-6.3,3.2-2.2.9-4.4,1.9-6.7,2.8-2.3.9-4.5,1.8-6.8,2.6-2.6.9-5.3,1.5-7.9,2.4-2.6.9-5.4,1.4-8,2.3-2.6.9-5.2,1.8-7.8,2.7-2.6.9-4.8,2.6-7.5,3.5-2.7.8-5.4,1.5-8.1,2.3-2.7.8-5.8.6-8.6,1.3-2.7.7-5.1,2.4-7.9,3-2.8.6-5.8.5-8.6,1.1s-5.6,1-8.5,1.4c-3,.5-5.9,1-9,1.1s-6.1.3-9.1.3c-3,0-6.1.2-9.1.4-3.1.1-6.1-.1-9.2.4-3,.5-5.8,1.6-8.7,2.8-2.7.8-5.3,1.9-8.1,2.8-2.7.8-5.6,1.6-8.3,2.4-2.8.8-5.7,1.3-8.6,1.9-2.9.6-5.8.8-8.7,1.2-2.8.3-5.6,1-8.5,1.2-2.8.2-5.7,0-8.5.2-2.9.2-5.7.7-8.6.9-2.9.2-5.8,1-8.6,1.2-2.9.2-5.8-.3-8.7,0-2.9.3-5.8.5-8.7.9-2.9.3-5.8,1.5-8.7,2-2.9.4-5.9.6-8.8,1.1-2.9.5-5.9.6-8.9,1.2-2.9.6-5.7,1.7-8.5,2.6-2.8.9-5.3,2.2-8.1,3.2-2.7,1.1-5.5,2-8.2,3.1s-5.8,1.8-8.5,2.9c-2.7,1.1-5.6,2-8.4,3-3.2,1.1-6.5,2-9.9,2.8-3.4.8-6.6,2.1-10,3-3.3.8-6.7,1.4-9.9,2.5-3.2,1-6.6,1.9-9.7,3-3.2,1.1-5.9,2.9-9.1,3.9-3,1-5.8,2.2-8.8,3.2s-5.7,2.3-8.6,3.4c-2.9,1.2-6.2,1.8-9,3.1-2.8,1.2-6,2.2-8.8,3.5-2.8,1.3-5.2,2.9-7.9,4.3-2.7,1.4-5.6,2.6-8.2,4.1-2.7,1.4-4.9,3.1-7.5,4.6-2.6,1.5-5.1,3-7.6,4.5-2.5,1.5-4.8,3.2-7.3,4.8-2.4,1.6-5.3,3-7.7,4.6-2.4,1.6-4.1,3.6-6.4,5.2s-5.5,3-7.7,4.7c-2.1,1.6-3.6,3.5-5.6,5.1-1.9,1.7-3.4,3.5-5.2,5.2-1.8,1.7-4.6,3.2-6.3,5-1.8,1.8-2.2,3.8-4,5.6-1.7,1.8-4,3.4-5.8,5.1-1.8,1.8-3.1,3.6-4.9,5.4-1.9,1.7-3.7,3.5-5.7,5.2-2,1.7-4.9,3.1-7.1,4.7-2.2,1.6-4.1,3.4-6.2,5.1-2.1,1.7-3.9,3.5-5.9,5.2-2,1.7-5.1,3.1-7.1,4.8-2,1.7-3.4,3.6-5.3,5.4-1.9,1.8-4.2,3.4-6,5.2-1.8,1.8-2.3,3.9-4,5.7-1.7,1.8-3.6,3.6-5.2,5.4-1.6,1.8-4.1,3.5-5.6,5.4-1.5,1.9-1.9,3.9-3.4,5.7-1.5,1.9-3.7,3.6-5.1,5.5-1.4,1.9-1.8,3.8-3.1,5.7-1.3,1.9-2.5,3.8-3.8,5.7-1.3,1.9-3,3.8-4.2,5.8-1.2,1.9-1.7,3.9-2.9,5.9-1.2,1.9-2.5,3.9-3.6,5.8-1.1,2-3.2,3.9-4.3,5.8-1.1,2-2.3,3.9-3.4,5.9-1.1,2-1.1,4-2.2,5.9-1.1,2-2.4,3.9-3.5,5.9-.6,1.1-2,1.8-2.5,2.3-.8.8-.9.8-1.2-.1-.3-1.1,0-3.4,0-5,0-1.9-1.3-3.5-1.3-5.4s.2-3.8.2-5.7c0-1.9.4-3.8.4-5.7,0-1.9,1-3.9,1-5.8,0-1.9-1.7-3.4-1.8-5.3,0-1.9.4-3.8.4-5.7,0-1.9.3-3.8.3-5.7s.7-3.9.7-5.7-.9-3.6-.9-5.5c0-1.9,1.1-3.9,1.1-5.8,0-1.9.6-3.8.6-5.7s-.3-3.7-.2-5.6c.1-2.1.9-3.9,2.3-5.9,1.5-2,2.7-4.1,5-6,2.2-1.9,4.9-3.6,7.3-5.4,2.2-1.8,4.4-3.6,6.5-5.5,2.1-1.8,4.8-3.5,6.9-5.4,2-1.8,4.2-3.7,6.2-5.5,2-1.9,2.6-4,4.6-5.9,2-1.8,3.7-3.8,5.7-5.6,2-1.8,4.5-3.6,6.5-5.4,2-1.8,4.4-3.6,6.4-5.4,2.1-1.8,4.9-3.4,7-5.2,2.1-1.8,4-3.7,6.2-5.4s4.1-3.6,6.5-5.3c2.4-1.7,4.5-3.5,7.1-5.1,2.1-1.6,4.4-3.1,6.6-4.7,2.2-1.5,4.4-3.1,6.7-4.6,2.3-1.5,5.6-2.5,8-3.9,2.4-1.4,4.7-2.9,7.2-4.2,2.5-1.4,4.3-3.2,6.8-4.5,2.5-1.3,5.8-2.1,8.4-3.4,2.9-1.6,5-3.7,7.6-5.4,2.6-1.8,5.4-3.4,8.2-5,2.8-1.6,5.6-3.2,8.9-4.5,3.1-1.2,6.5-2,9.8-2.8,3.3-.8,6.7-1.3,10.1-2.1,3.4-.7,6.4-2.3,9.6-3.2,2.9-.8,6.2-1,9-2,2.8-.9,5.2-2.5,8-3.5s5.4-2.2,8.1-3.2,6.1-1.3,8.8-2.2c2.9-.9,5.2-2.4,7.6-3.6,2.5-1.2,5.3-2.2,7.5-3.6,2.2-1.4,4.1-3,6.3-4.4,2.2-1.4,4.4-2.8,6.9-4,2.6-1.2,5.2-2.5,7.9-3.6,2.7-1.1,5.8-1.8,8.5-2.9,2.8-1,5.8-1.7,8.6-2.6,2.8-1,5.2-2.6,8-3.5s5.8-1.5,8.7-2.3c2.8-.8,5.7-1.6,8.6-2.3,2.9-.7,5.7-1.5,8.6-2.2,2.9-.7,5.9-.9,8.8-1.5,2.9-.6,5.8-1.1,8.7-1.6,2.9-.6,5.8-.9,8.7-1.4,2.9-.5,5.7-1.3,8.6-1.7,2.9-.5,5.8-.6,8.7-1,2.9-.4,5.7-1,8.6-1.4,2.9-.4,5.7-.6,8.6-1,2.9-.4,5.7-1,8.5-1.4,3-.5,5.7-2,8.7-2.8,2.9-.8,6.3-.6,9.2-1.3,3-.7,5.8-2.1,8.7-2.4,3.5-.3,6.8.3,10.1.6s6.7.5,10,.7c2.6.2,5.3.4,8,.2,2.7-.1,5.4-.2,8.1-.5,2.7-.4,5.2-1.5,7.9-2,2.9-.5,5.7-1,8.5-1.6,2.8-.6,5.8-.8,8.6-1.5,2.8-.7,5.5-1.5,8.3-2.3,2.8-.7,5.3-2,8-2.8,2.7-.8,5.7-1,8.4-1.8,2.7-.8,5.6-1.3,8.2-2.1s5.3-1.7,8-2.5c2.2-.7,3.9-2.2,6-2.9,2.1-.7,4.9-.6,6.9-1.5s3.5-2.4,5.4-3.4c2.1-1.4,4.2-2.9,6.3-4.3,2.1-1.5,4-3,6.1-4.5,2-1.5,3.7-3.2,5.6-4.8,2-1.6,4.7-2.7,6.6-4.2,2.3-2.1,3-4.1,3.2-5.8.3-2.2-.9-3.9-3-5.3-1.9-1.3-4.4-2.3-7.4-2.9-2.8-.5-5.8-.6-8.7-.4-3,0-6-.1-8.9.2-3,.3-5.9,1.1-8.8,1.6-2.9.5-6,.7-8.9,1.2-3,.5-5.9,1.1-8.9,1.5-3,.4-5.9,1.4-9,1.6-3.2.2-6-.8-8.6-1.6-2.7-.9-4.7-2.2-6.4-3.8-1.7-1.6-3.6-3.2-3.9-5.3-.3-2-.3-4.2,1-6.3,1-1.7,2.3-3.4,3.5-5,1.3-1.6,3.8-2.8,5.2-4.4,1.4-1.6,1.9-3.6,3.4-5.1,1.6-1.5,3.3-3,4.9-4.5,1.7-1.5,3.3-3,5-4.4,1.7-1.4,4.6-2.2,6.4-3.7,1.8-1.6,2.7-3.6,4.6-5.1,1.9-1.5,3.8-3,5.8-4.4,2-1.4,4.1-2.8,6.2-4.1,2.1-1.3,4.9-2.1,7.1-3.4,2.2-1.3,4-2.8,6.2-4,2.2-1.2,4.1-2.8,6.3-4,2.2-1.2,5.5-1.4,7.7-2.6,2.2-1.2,4.6-2.3,6.8-3.5,2.2-1.2,4-2.9,6.2-4s4.7-2.1,6.9-3.3c2.2-1.4,4.3-3,6.2-4.6,1.9-1.6,3.9-3.2,5.7-4.9,1.8-1.7,3.4-3.4,5.5-4.8,2-1.2,3.6-2.8,5.7-4,2.1-1.1,4.3-2.1,6.5-3.2,2.2-1,4.5-1.9,6.7-2.9,2.2-1,4.3-2.1,6.5-3.1,2.2-1,4.6-1.7,6.8-2.7s4.8-1.6,6.9-2.6c2.2-1,4.4-2,6.5-3.1,2.1-1.1,4.1-2.3,6.2-3.5,2.3-1.3,4.6-2.8,6.5-4.3,2-1.6,3.3-3.6,5.1-5.3,1.8-1.7,4-3.2,5.7-4.9,1.7-1.8,3.1-3.7,4.9-5.4,1.8-1.7,3.8-3.2,5.9-4.7,2-1.5,4.1-2.9,6.3-4.2,2.2-1.3,4.5-2.4,6.8-3.6,2.3-1.2,4.5-2.5,6.8-3.6,2.4-1.1,4.9-2,7.2-3.1,2.2-1,4.3-2,6.5-2.9,2.2-.9,3.7-3,5.9-3.9s4.7-1.4,7-2.2c2.3-.8,4.9-1,7.2-1.7,2.3-.8,4.7-1.2,7.1-1.9,2.3-.7,4.2-2.3,6.6-2.9s5-.7,7.3-1.3c2.4-.6,4.2-2.3,6.6-2.9,2.4-.6,4.8-1,7.1-1.6,2.4-.6,4.8-1,7.1-1.6s4.9-.6,7.3-1.1c2.4-.5,4.7-1.2,7-1.7,2.4-.5,5-.3,7.4-.8,2.4-.5,4.3-2.1,6.7-2.6,2.4-.6,4.5-1.5,6.9-2.1,2.3-.6,5.1,0,7.4-.7,2.3-.6,4.6-1.3,6.9-2,2.3-.6,4.8-.8,7.1-1.5,2.5-.7,4.8-2,6.9-3.2,2.2-1.2,4-3,6-4.3,2.1-1.4,4.4-2.2,6.6-3.4,2.2-1.2,3.9-3.2,6.5-3.8,2.1-.4,4.4-.4,6.6-.5,2.2-.1,4.4.2,6.6.2,2.2,0,4.4.5,6.6.6,2.2,0,4.4-.2,6.5-.4,2.8-.1,5.7-.3,8.4-.7,2.7-.4,5.3-1.5,8-2.1,2.7-.6,5.3-1.5,8-2.2,2.4-.5,4.7-1.1,7-1.8,2.3-.7,4.4-1.9,6.6-2.7,2.3-.8,4.9-.7,7.1-1.5,2.2-.9,4.4-1.9,6.6-2.8,2.2-.9,4.7-1.2,6.9-2.2,2.5-1,4.7-2.8,7.3-3.2,2.6-.5,5.4-.5,8.1-.6,2.7-.1,5.5,1,8.2,1.1,2.4,0,4.7-1.5,7.1-1.6,2.4,0,4.8.1,7.2,0,2.4-.2,4.8,0,7.2-.3,2.4-.3,4.9,0,7.2-.4,2.3-.5,4.6-1.3,6.9-1.9,2.3-.6,4.3-2.1,6.6-2.9,2.2-.7,4.8-.8,7-1.6,2.2-.9,4.1-2.4,6.3-3.4,2.2-1,4.6-1.4,6.7-2.6,2.1-1.1,4-2.6,6.1-3.9,2-1.3,4-2.6,6-4,2-1.4,3.4-3.7,5.3-5.2,2.1-1.8,4.6-3,6.7-4.7,2.1-1.8,4.2-3.4,6.5-5,2.2-1.6,4.7-2.5,7.1-3.8,2.3-1,4.3-2.7,6.6-3.6,2.3-.9,4.9-1.1,7.2-2,2.3-.9,4.4-2.6,6.7-3.5,2.3-.9,4.8-1.3,7.2-2.2,2.3-.9,4.4-2.6,6.7-3.5,2.3-.9,4.6-2.1,6.9-3,2.3-.9,4.7-1.7,7-2.7,2.3-1,4.6-1.9,6.9-3,2.3-1.1,4.8-1.7,7-2.9s4.4-2.6,6.6-3.9c2.3-1.3,5-2.1,7.2-3.6s4.3-3.5,6.4-5.3c2.1-1.8,4.4-3.3,6.5-5.2,2.1-1.9,3.7-4.6,5.6-6.6,2-2,3.6-4.7,5.5-6.8,2-2.2,4-4.2,6-6.3,2-2.2,3.6-4.8,5.5-7.1,1.9-2.3,4.2-4.1,5.9-6.6,1.7-2.5,3-5.5,4.4-8.3,1.2-2.7,3.4-4.4,4.8-6.8,1.4-2.4,2.6-5.2,4.2-7.4,1.6-2.3,3.3-4.4,5-6.5,1.7-2.2,3.2-4.6,4.9-6.8,1.7-2.1,3.3-4.4,5-6.6,1.7-2.2,4.1-3.4,5.7-5.8,1.6-2.3,2.1-6.1,3.5-8.6,1.4-2.6,2.9-5.1,4.1-7.8,1.3-2.8,2.2-5.8,3.3-8.7,1.1-2.9,3.5-4.8,4.5-7.8,1-3,1.4-6.5,2.3-9.6.9-3.1,1.2-6.7,2-9.9.8-3.2,3.1-5.4,3.9-8.6.8-3.2.3-7.4,1.1-10.6.8-3.3,2.3-6,3.2-9.2.8-3,1.7-6.1,2.5-9.2s1.5-6.2,2.2-9.4c.7-3.2,1-6.6,1.6-9.8.6-3.2,1.8-6.2,2.2-9.5.5-3.4.2-7.1.5-10.6.3-3.6,1.5-6.3,3-8.5,1.5-2.2,3.6-3.5,5.9-4.5,2.2-1,4.6-1.5,7-1.7,2.6-.2,5.1-.3,7.4,0,2.5.6,3.5,3.8,4.4,8.8.6,3.2,2.2,7.2,2.3,11.4.1,3.5-.7,7.1-.8,10.9-.1,3.6.4,7.6.1,11.1-.3,3.8-.8,7.4-1.1,10.5-.4,4.7-1,8.4-1.1,10.4-.5,4.1-1.4,7.8-1.1,10.9.4,4.4,2.9,7.4,4.5,10,1.9,3,3.8,4.1,6.5,4.4,2.3.2,5.1,1.5,7.6-.3,2-1.4,4-3.6,5.9-6.4,1.9-2.5,3.8-5.2,5.5-8,1.7-2.8,3.5-5.8,4.9-8.9,1.4-3.2,2.3-7,3.4-10.6,1-3.6,2.3-7.2,2.8-11.1.5-3.2-.2-7.1,0-10.8.2-3.5.8-6.9.9-10.4.1-3.6.3-7.1.6-10.5.3-3.6,1-6.8,1.8-9.9.9-3.2,2-5.8,3.7-8.1,1.6-2.1,3.4-3.5,6-4.4,2.6-.4,4.8-2.6,7.4-3.1,2.6-.4,5.2-1.1,7.8-1.5,2.6-.5,5.5.5,8.1,0,2.6-.5,5.2-1.1,7.8-1.6,2.6-.5,4.9-2.5,7.5-3,2.6-.5,5.7,1.5,8.3.9,2.6-.5,4.9-2.3,7.5-2.8,2.6-.6,5.3-.4,7.9-.9,2.6-.6,4.8-3.1,7.4-3.7,2.6-.5,5.2-.8,7.8-1.3,2.6-.5,5.3,0,7.9-.6,2.6-.5,5-2,7.6-2.5,2.6-.5,5.2-.8,7.8-1.2,2.6-.5,5.2-.8,7.8-1.2,2.6-.4,5.4.7,8.1.3,2.6-.4,5.1-1.5,7.7-1.8,2.6-.3,5.1-2,7.7-2.3,2.6-.3,5.4.8,8,.6,2.6-.2,5.3.4,8,.3,2.6-.2,5.2-1.6,7.8-1.7,1.5,1.6,2.4,5.4,1.3,8.5-1.3,3.5-4.1,5.4-6.1,8.1-2,2.8-4.4,5.3-5.6,8.7-1.6,4.3-.9,9.7-.9,14.7,0,5-.7,9.9-.5,14.8.1,4.3.8,8.3.9,11.9.2,4.3.3,8.2.6,11.8.3,4.4.5,8.2.9,11.7.4,4.4.5,8.3,1,11.6.8,4.4,1.4,8.2,2.4,11.2,1.3,3.9,3.2,6.4,4.7,9.2,1.6,2.8,3.1,5.5,4.8,8.8,1.3,2.6,2.4,5.8,3.7,9.7,1,2.9,3,5.6,3.9,9.7.7,3.2.9,7,1.5,11,.4,3.7.4,7.4.5,11,.1,3.6.1,7.3,0,10.9,0,3.6,0,7.3-.3,10.9-.3,3.6-.5,7.2-.9,10.8-.4,3.6-2.1,6.9-2.6,10.5-.5,3.5-.7,7.2-1.2,10.7-.7,6.5.3,9.9,1.1,11.7,1.4,2.9,3.8.2,6.4-4.3,1.8-3.1,4.1-6.5,5-10.4,1-3.6,2.3-7,3.1-10.7.8-3.7.5-7.6,1.1-11.4s1.3-7.4,1.7-11.2c.4-3.8.7-7.6.9-11.4.2-3.8,0-7.6,0-11.5,0-3.8,1.6-7.8,1.6-11.7,0-3.9-.8-7.7-1-11.6-.2-3.9,0-7.9-.1-11.8-.2-3.9-1.6-7.6-1.9-11.6-.3-4-.3-8-.7-11.9-.4-4-.3-8.1-.8-12-.5-3.5-1.7-6.7-2.3-10.2-.5-3.5-1.3-6.9-1.9-10.4-.5-3.5-.8-7.2-1.3-10.7-.3-2.3-.6-4.6-.6-6.4-.2-3.4.4-5,1-4.3,1.6,3.2,2.6,7.7,3.4,12.5.9,4.6,1.3,9.4,2.1,13.2.8,4,2.8,7.5,3.5,11.5.8,4,0,8.6.7,12.6.7,4,2.6,7.5,3.2,11.5.6,4,.7,8.1,1.2,12.1.5,4,.2,8.1.6,12.1.4,3.8,1.7,7.4,1.9,11.2.2,3.8.1,7.7.2,11.5,0,3.8.3,7.6.3,11.4,0,3.8.1,7.6,0,11.4-.2,3.8-1,7.6-1.3,11.3-.3,3.8-.5,7.5-.9,11.2-.4,3.7-1.7,7.3-2.3,11-.6,3.7-.7,7.4-1.4,11-.7,3.1-1.7,6.1-2.7,9-1.1,2.9-2,5.9-3.1,8.8-1.2,2.8-2.2,5.7-3.2,8.6-1.4,3.9-2.5,8-3.8,12-1.3,4-3.5,7.5-5.3,11-1.5,3.3-3.8,7.3-6.5,9.3-2.8,2.1-6.2,2.6-8.3-.7-1.9-3.2-1.5-10.3-2-13.4-.6-4.2-1.7-1.1-3.3,2.9-1.3,3.2-2.7,6.9-3,8.3-1,3.5-2.2,6.9-3.1,10.5-.9,3.5-1.3,7.3-2.3,10.7-1,3.5-2.8,6.7-4.1,9.9-1.4,3.3-3.1,6.2-4.9,9-1.7,2.5-3.7,4.6-5.7,6.8-1.9,2.2-3.8,4.7-5.8,6.8-2,2.1-4.2,4-6.1,6.2-2,2.2-3.8,4.7-5.5,7.2-3.5,4.6-3.5,2.5-2.3-.7.9-2.5,3.1-5.3,3.9-6.7,1.7-3,3.5-5.7,5.5-8.4,1.9-2.7,3.9-5.5,5.8-8.3,1.9-2.8,3.1-6.4,4.6-9.6,1.5-3.1,3.2-6,4.3-9.4,1.1-3.4,1.7-6.9,2.5-10.4.8-3.5,1.2-7.1,2-10.6.7-3.1,2.2-5.8,3-8.9.8-3,1.1-6.3,1.9-9.3.8-3.1,2.4-5.8,3.1-8.9.7-3.1,1.2-6.3,1.8-9.5.5-3.4.1-7,.7-10.4.6-3.4,1.5-6.8,2-10.2.6-3.4.7-7,1.2-10.5.5-3.5,2.2-6.8,2.5-10.4.3-3.5.2-7.2.2-10.7,0-3.6-.5-7.1-.8-10.7-1.6-7.5-2.6-7.3-3.5-3.9-.7,2.3-2.1,5.9-2.6,10.3-.4,3.5.3,7.4,0,10.8-.5,5.1-2,9-2.5,10.1-2,6.4-2,4.6-2.3-.5-.2-2.8-1.1-6.3-1.2-10.3,0-3.5.5-7.3.5-10.6,0-5.2-.9-9.3-1.1-10.4-.2-4.2-.5-8.4-1.1-12.5s-.7-8.6-1.7-12.6c-1-4-2.9-7.4-4.3-11.3-1.1-3-1.2-6.9-2.4-9.9-1.2-3-2.5-5.9-3.8-8.9-1.2-3-3.3-5.3-4.5-8.3-1.2-3.1-1.4-6.9-2.3-10.2-.9-3.3-3-6.1-3.6-9.6-.8-4.2-.7-8.9-1.4-13.3-.7-4.4-1.3-8.9-2.2-13.2-1-4.4-2.2-8.6-4-12.5-1.5-3.2-3.8-5.3-6.1-7.7-2.2-2.3-4.2-5.5-6.7-6.8-2.5-1.3-5.2-1.1-7.8-1.4-2.6-.3-5.1.3-7.4,1.2-2.1.8-4.6.6-6.4,2.4-1.8,1.7-2.6,5.3-4.3,7.2-1.7,1.9-3.7,3.2-5.6,4.7-2.1,1.8-4.4,3.6-6.7,4.8-2.3,1.2-4.8,2.1-7.1,3.4-2.3,1.3-4.8,2.2-6.8,4.3-2,2.3-3.2,5.7-5,8.4-1.7,2.7-4.4,4.1-5.9,7.1-1.5,3-2.3,6.7-3.7,9.8-1.3,3.1-3.2,5.7-4.5,8.9-1.3,3.2-1.9,6.9-3.2,10.1-1.3,3.2-2,6.9-3.4,9.9-1.4,3-3.5,5.3-5.1,8.1-1.6,2.8-3.1,5.7-4.9,8.1-1.8,2.4-3.5,5.3-5.6,7.3-2,1.6-4.9,1.6-6.9,3.5-2,1.8-3.2,5.1-5.1,7.1-1.9,2-4.2,3.2-6,5.4-1.8,2.2-3.1,5.1-4.6,7.5-1.6,2.5-2.9,5.2-4.2,8-1.3,2.8-3.4,5-4.3,8.1-.9,3.1,0,7-.5,10.3-.4,3.2-1.1,6.3-1,9.8.6,4.2,1.3,7.8,3.2,9.8,1.9,2.1,4.8,2.5,7.2,3.9,2.3,1.3,4.6,2.9,6.7,4.9,2,1.9,3.3,4.5,4.6,8,.9,2.7,2.2,5.6,2.4,9.7.1,3,.1,6.5-.3,10.4-.6,3.6-1.8,7-2.8,10.4-1,3.4-1.9,6.9-3.1,10.1-1.2,3.2-2,6.8-3.4,9.9-1.4,3.1-3.4,5.7-4.8,8.7-1.2,2.5-2.6,4.9-3.8,7.4-1.2,2.5-1.7,5.6-3,8.1-1.3,2.4-3.3,4.2-4.6,6.5-1.3,2.4-2.6,4.7-4.1,6.9-1.5,2.2-3.4,3.6-5.1,5.6-1.6,1.9-2.3,5-3.9,6.8-1.6,1.8-3.3,3.4-4.9,5.3-1.5,1.9-3.6,3.1-5,5.2-1.6,2.4-2.3,5.7-3.8,8.2-1.5,2.5-3.1,4.8-4.5,7.3-1.5,2.5-2.8,5.1-4.2,7.6-1.4,2.5-3.3,4.6-4.8,7-1.5,2.5-2.7,5.2-4.2,7.6-1.5,2.4-3.7,4.1-5.2,6.4-1.6,2.3-3.2,4.6-4.9,6.7-1.7,2.1-3.2,4.5-5.1,6.5-1.8,1.9-3.7,3.8-5.7,5.6-1.9,1.8-3.9,3.4-5.8,5.1-1.9,1.7-3.6,4-5.6,5.6-2,1.6-4,3-6,4.6-2,1.5-4.2,2.7-6.2,4.2-2,1.5-4.5,1.9-6.5,3.3-2,1.4-3.7,3.8-5.8,5.1-2.1,1.4-4.3,2.1-6.4,3.5-2.1,1.3-4.3,2.1-6.4,3.4-2.1,1.2-4,3.1-6.1,4.3-2.1,1.2-4,2.9-6.2,4.1-2.1,1.2-4.2,2.4-6.3,3.6-2.1,1.1-4.7.9-6.8,2-2.1,1.1-4.1,2.8-6.2,3.9-2.1,1.1-4.4,1.9-6.5,3-2.1,1.1-4.1,2.6-6.3,3.6s-4.1,2.8-6.2,3.9c-2.1,1.1-4.4,1.8-6.5,2.8-2.1,1.1-4.3,1.9-6.5,3-2.1,1.1-4.5,1.4-6.7,2.5-2.2,1.3-4.3,3.1-6.3,4.8-2,1.7-3.4,4.4-5.4,6-2,1.7-4.2,3.3-6.4,4.6-2.1,1.2-4.7,1.3-6.9,2.3-2.2,1.1-4.2,2.8-6.4,3.8s-4.6,1.3-6.9,2.3c-2.2,1-4.3,2.3-6.5,3.4-2.2,1.1-4.5,2-6.6,3.2s-4,2.9-6.1,4.3c-2.2,1.3-4.8,1.9-6.9,3.3-2.1,1.4-3.6,4-5.7,5.5-2.1,1.5-4.5,2.5-6.5,4.1-2,1.6-3.7,3.6-5.6,5.4-1.9,1.8-3.4,3.8-5.2,5.7-1.7,1.9-3.8,3.5-5.3,5.6-1.9,2.2-3.4,4.3-4.5,6.3-1.4,2.5-2,4.9-2.4,7.1-.4,2.5-.5,4.9.5,7.1.9,1.9,1.9,4.2,3.9,5.8,1.6,1.3,4.4,1.2,6.7,2.3,2.2.8,4.3,1.4,6.6,2,2.3.5,4.1,2.4,6.5,2.8,2.3.3,5-.6,7.4-.4,2.4.2,4.6,1.1,7,1.2,2.4,0,5-.8,7.3-.8,2.4,0,4.8.5,7.1.6,2.4,0,4.7.2,7.1-.2,2.3-.5,4.5-2.4,6.9-3.1,2.3-.7,4.7-.9,7-1.7,2.2-.7,4.5-.8,6.7-1.4,2.2-.6,4.4-1.6,6.6-2.1,2.2-.5,4.4-1.4,6.7-1.8,2.2-.4,4.5-.9,6.7-1.2,2.2-.3,4.4.2,6.6,0,2.2-.2,4.4-.4,6.6-.4,2.1,0,4.1.5,6.2.6,2.1.1,4.2,0,6.3.2,2.1.2,4.4-.6,6.5-.5,2.1.1,3.9,1.4,6,1.4,2,0,4-.4,6-.6,2-.2,4-.2,6-.5,2-.3,4-.9,5.9-1.2,2-.3,4-.9,5.9-1.1,2-.2,4,.3,6,.2,2,0,4.2-.8,6.2-.9,2,0,4,.2,6.1,0,2.1-.2,4.1-1,6.2-1.6,2.5-.7,5.1-1.1,7.6-2.1,2.5-1,5-2.1,7.5-3,2.5-1,5-2.9,7.5-3.6,2.5-.7,5.1-.4,7.7-.6,2.4-.2,4.8,0,7.1.3,2.3.3,4.6.6,6.8,1.2,2.2.6,4.7.5,6.9.9,2.2.4,4.4.6,6.7.6,2.3,0,4.4,1.3,6.7,1,2.3-.3,4.7-1.9,7.1-2.6,2.4-.6,4.7-1.1,7-2.1,2.3-1,4.6-2.2,6.8-3.5s4.9-1.9,7-3.6c2.1-1.7,3.5-4.6,5.4-6.7,1.8-2.4,3.4-4.4,4.9-6.2,2-2.4,3.9-4.1,5.4-5.7,2.1-2.1,4.4-2.7,6.3-4,1.9-1.3,3.6-3.6,6-4.9,1.9-1,4.1-1.5,6.5-2.9,1.9-1.1,4-2.1,6.4-3.6,2.1-1.4,4.2-3.2,6.1-5,1.9-1.9,3.6-4.1,5.4-6.2,1.8-2.1,4.1-3.5,5.9-5.6,1.8-2.1,3.3-4.6,5.2-6.5,1.9-1.8,4.2-2.8,6.3-4.2,1.9-1.2,3.7-2.8,5.7-3.7,2-.9,4-1.1,6-1.6,2-.5,4-1.1,5.9-1.2,2.1-.1,4.4-1.3,6.5-1.4,2.2,0,4.2.9,6.3,0,2.6-1.1,5.1-3.3,7.4-5.5,2.3-2.2,4.3-5.1,6.3-7.5,2-2.3,4.1-4.5,6.1-6.8,2-2.4,4.1-4.5,6.1-6.9,1.9-2.4,4.1-4.6,6-7.1s3.1-5.9,4.9-8.4c1.9-2.5,4.5-4.3,6.3-6.9,1.8-2.6,2.7-6.2,4.4-9,1.6-2.2,4-3.8,5.4-5.3,1.2-1.2,2-1.2,1.4.9-.3,1.1-1.9,2.2-2.6,3.9-1.2,2.9-2,5.9-3.4,8.6-1.4,2.7-2.8,5.5-4.3,8.1-1.5,2.6-3.2,5-4.9,7.5-1.6,2.5-3.7,4.5-5.4,7-1.7,2.4-3.5,4.7-5.2,7-1.7,2.4-3.3,4.9-5,7.2-1.8,2.2-3.4,4.9-5.3,7.3-1.8,2.4-4,4.2-5.9,6.5-1.9,2.3-3.4,5.1-5.4,7-2.1,2-4.2,4.1-6.4,5.5-2.2,1.3-4.5,1.4-7,1.8-2.7-.4-4.7-1.2-6.5-1.6-2.7-.6-5,0-7.1.2-2,.2-4,1.4-6.8,3.5-1.8,1.3-3.8,3.2-6.3,5.6-2,1.9-4.2,3.5-6.2,5.4-2,1.8-4.1,3.6-6.1,5.4-2,1.8-4,3.7-6,5.6-2,1.9-4.6,2.9-6.5,4.8-1.9,2-3.4,4.7-5.2,6.8-1.8,2.1-3.6,4.2-5.2,6.5-1.5,2.6-3.4,4.8-5,7.1-1.7,2.4-2.8,5.4-4.6,7.5-1.9,2.2-4.5,3.3-6.5,5.1-2.1,1.9-4.2,3.5-6.3,5.1-2.2,1.6-4.1,4.1-6.4,5.4-2.3,1.3-4.9,1-7.2,2-2.3,1-4.6,2.2-7,2.9-2.3.8-4.7,1.8-7.1,2.3-2.3.6-4.7,1.2-7.1,1.6-2.3.4-4.6-.1-6.9,0-2.2.2-4.4.9-6.6,1.1-2.2.2-4.3.3-6.5.4-2.2.2-4.3.2-6.5.4-2.2.2-4.4,1.1-6.6,1.3-2.2.2-4.3,0-6.5.3-2.2.3-4.4.8-6.6,1.3-2.2.4-4.4.3-6.6.9-2.2.6-4.4,1.6-6.6,2.4-2.2.8-4.2,2.6-6.3,3.6-2.1,1-4.6.9-6.7,2.2-2.1,1.3-3.8,3.2-5.3,4.8-1.8,1.9-2.7,4.1-3.6,6.1-1,2.2-2.2,4.5-1.9,6.6.2,1.9,1.9,3.1,3.4,4.6,1.2,1.2,2.6,2.2,4.7,3,2,.6,4.1.9,6.2,1.1,2.1.3,4.2.8,6.4.8s4.5-.7,6.7-.9c2.2-.2,4.4-.3,6.7-.7,2.2-.4,4.5.2,6.7-.3,2.3-.5,4.5-1.1,6.8-1.7,2.3-.6,4.5-2.3,6.7-2.9,2.3-.7,4.6-.7,6.8-1.3,2.3-.7,4.7-2,7-2.8,2.3-.8,4.8-.9,7.1-1.8,2.3-.9,4.5-3,6.9-3.9,2.3-.9,4.8-.4,7.2-1.4,2.3-.9,4.5-3.2,6.8-4.2,2.3-1,4.7-2,7-3,2.3-.9,4.7-1.6,7.1-2.5,2.3-.9,4.8-1.1,7.1-1.9,2.4-.8,4.7-2.2,7.1-2.9,2.4-.7,4.9-1.1,7.4-1.8,2.5-.7,4.9-1.5,7.4-2.5,2.5-1,4.7-2.8,7.1-4.2,2.5-1.4,5.3-1.8,7.7-3.6,2.4-1.8,4.6-4,6.9-6,2.3-2,4.6-4,6.8-6,2-1.8,3.8-3.9,5.8-5.7,2-1.8,3.9-3.9,5.9-5.6,2.1-1.7,4.1-3.4,6.2-5.1,2.1-1.7,4.7-2,6.8-3.7,2.1-1.6,3.8-4.3,5.9-5.9,2.1-1.6,4.5-2.5,6.6-4.1,2.1-1.6,4.2-3.3,6.3-4.9,2.1-1.6,4.3-3.2,6.4-4.8,2.1-1.6,4-3.9,6.1-5.6,2.1-1.7,4.5-2.6,6.6-4.3,2.1-1.7,3.7-4.6,5.8-6.3,2.1-1.8,4.7-2.4,6.7-4.3,2.1-1.9,3.5-5,5.5-7,2-1.9,4.3-3.4,6.2-5.5,1.6-2.1,3.4-4.2,4.7-6.6,1.3-2.4,2.3-5,3.5-7.6,1.2-2.5,2.4-5,3.6-7.5,1.2-2.5,2.2-5.2,3.6-7.6,1.7-3.2,4.6-6.1,6-9.6,1.5-3.5,1.7-7.4,1.7-11.1,0-2.5-1-4.4-1.9-6.5-.9-2.1-1-4.7-1.3-7.1-.3-2.4.1-4.6.8-7.2.7-2.5,1-5.2,1.8-7.7,1-3.1,2.2-6.2,3.4-9.2,1.2-3.1,2-6.3,3.3-9.3,1.3-3,3.2-5.7,4.6-8.7,1.4-3,2-6.6,3.5-9.5,1.5-2.9,3.4-5.6,5-8.5,1.6-2.9,3.4-5.6,5.1-8.3,1.7-2.8,3.7-5.3,5.5-7.9,1.8-2.7,3.1-6,5-8.6,1.8-2.7,4.2-4.7,6.1-7.5,1.8-2.8,3.4-5.8,5.1-8.7,1.7-2.9,2.9-6.3,4.5-9.3,1.6-3,3.1-6.1,4.6-9.2,1.5-3.2,3.7-5.8,5-9.1,1.3-3.3,2.4-6.8,3.4-10.2,1.1-3.4,2.4-6.9,3.2-10.4.8-3.5.3-7.3.8-11,.5-3.6,1.4-7.2,1.6-10.9.2-3.7.9-7.4,1.5-11.1.6-3.7.9-7.5,1.5-11.2.6-3.8,1.5-7.5,1.7-11.3.2-3.3-.4-6.5-.3-9.8.1-3.3.7-6.7.7-10s-.5-6.5-.6-9.9c-.1-3.3,0-6.7-.2-10-.2-3.3-.4-6.7-.7-10-.3-3.3-.4-6.7-.8-10.1-.3-3.8-.4-7.8-1-11.6-.5-3.8-1.6-7.4-2.3-11.1-.7-3.7-1.6-7.4-2.5-11.2-.9-3.7-1.5-7.6-2.5-11.3-.9-3.7-1.7-7.6-2.7-11.3-.9-3.8-2.6-7.1-3.5-11-.9-3.9-.7-8.2-1.5-12.1-.8-4-2.2-7.6-2.9-11.6-.6-4-.7-8.2-1-12.3-.4-4.1-1.2-8.2-1.2-12.4,0-4.1.4-8.2.7-12.5.5-4.2,1.5-7.7,2.8-11.2,1.3-3.6,2.8-7,3.7-10.7,1.4-5.1,1.8-11,4.2-15.1,2.5-4.3,7.1-4.1,9.7,1.3,1.7,3.3,3.5,6.9,3.8,11.2.3,4.2.3,8.1,1.2,11.9,1.9,7.3,2.2,5.3,3.1,0,.6-3.2,1.2-7.4,1.6-11.5.5-5.5,1.3-10.2,1.8-11.3.9-3.9,2.2-7.5,4.5-9.2,2.2-1.7,5.2-.8,7.7-1.1,2.6-.4,5.2-1,7.9-1.4,2.6-.4,5.2-1.6,7.8-2.1,2.6-.4,5.1-2.6,7.7-3,2.6-.4,5.3,0,8-.5,2.6-.5,5.2-1.5,7.8-2,2.6-.5,5.4.4,8,0,2.6-.5,5.2-1,7.8-1.5,2.6-.5,5.2-.8,7.9-1.2,2.6-.5,5.2-1.7,7.8-2.2,2.6-.5,5.3-.2,7.9-.7,2.6-.5,5.1-2.2,7.8-2.7,2.6-.5,5.2-.9,7.9-1.3,2.6-.5,5.2-1,7.9-1.5,2.6-.5,5.3.5,8,0,2.6-.5,5.3-.3,7.9-.8s5.2-1.9,7.8-2.4c2.6-.5,5.2-.9,7.9-1.4,2.6-.5,5.1-2.5,7.7-3,2.6-.5,5.3,0,7.9-.4,2.6-.5,5.3-.4,7.9-.9,2.6-.5,5.1-2.3,7.8-2.8,2.6-.5,5.2-1.4,7.8-1.9,2.6-.5,5.3-.7,7.9-1.2,2.6-.5,5.3,1,8,.4,2.6-.5,5.1-2.6,7.8-3.1,2.6-.5,5.3-.4,7.9-.9,2.6-.5,5.2-.8,7.8-1.4,2.6-.5,5.3-.5,7.9-1,2.6-.5,5.1-3.1,7.8-3.6,2.6-.5,5.3.3,7.9-.2,2.6-.5,5.2-.9,7.9-1.4,2.6-.5,5.2-2.4,7.8-2.9,2.6-.5,5.3.8,7.9.3,2.6-.5,5.2-.7,7.9-1.2,2.6-.5,5.2-1,7.9-1.5,2.6-.5,5.2-3.4,7.8-3.9s5.3,1,7.9.5,5.2-2.2,7.8-2.7,5.2-1.8,7.8-2.2c2.6-.5,5.3.2,7.9-.2,2.6-.5,5.3-.4,7.9-.9,2.6-.5,5.2-1.5,7.8-2,2.6-.5,5.2-1.8,7.8-2.3,2.6-.5,5.3.8,7.9.3,2.6-.5,5.2-1,7.9-1.4s5.2-.8,7.8-1.2c2.6-.5,5.2-1.8,7.8-2.2,2.6-.5,5.2-1.4,7.9-1.8,2.6-.5,5.2-.3,7.9-.7s5.2-2.4,7.9-2.9c2.6-.5,5.2.8,7.9.4,2.6-.5,5.2-1.3,7.9-1.8s5.2-1.9,7.8-2.3c2.6-.5,5.2-1.7,7.9-2.1,2.6-.4,5.2-.9,7.8-1.3,2.6-.4,5.2.8,7.9.4,2.6-.4,5.2-.8,7.9-1.2,2.6-.4,5.2-.5,7.8-.9,2.6-.4,5.2-1.9,7.9-2.3,2.6-.4,5.2-.6,7.8-1.1,2.6-.4,5.3-2.1,7.9-2.6,2.6-.4,5.2-.1,7.8-.5,2.6-.4,5.2-.7,7.9-1.2,2.6-.4,5.2.2,7.8-.2s5.3-2.6,7.9-3c2.6-.4,5.2.6,7.8.2,2.6-.4,5.4-1.9,8.1-2.2,2.9,2,3.8,8,3.7,12.7,0,3.3-.5,6.7-.5,10.1s.4,6.5.4,9.9.4,6.5.4,9.8-.3,6.7-.3,10,0,6.6,0,9.9-.5,6.8-.5,10.1.8,6.4.8,9.7-1.4,7-1.4,10.3,1.5,6.2,1.5,9.5-1.3,7-1.3,10.3.3,6.5.3,9.9c.3,3.7.5,7.2-.2,10.5-.8,3.6-2.9,6.7-4.7,9.9-1.7,3.1-3.8,5.7-6.2,8.4-2.2,2.6-4,6.3-6.6,8.6-2.5,2.2-5.2,4.4-7.8,6.4-2.7,2-5.8,2.3-8.4,4.1-2.3,1.7-4.7,3.4-7,5.1-2.3,1.8-4.4,4.2-6.7,6.1-2.3,1.9-4.2,4.9-6.4,6.7-2.3,1.9-4.5,3.8-6.8,5.7-2.3,1.9-5,2.3-7.3,4.1-2.6,2-4.9,5-7.5,7.3-2.6,2.2-4.9,4.9-7.4,7.3-2.5,2.4-5.4,3.9-7.8,6.4-2.4,2.5-4.7,5.3-7.1,7.9-2.4,2.6-4.6,5.5-7,8.2-2.3,2.7-4.7,5.4-7,8.2-2.3,2.8-4.8,5.3-7,8.1-2.3,2.8-3.6,7.1-5.8,9.9-2.2,2.9-4.5,5.7-6.7,8.6-2.2,2.9-5.3,4.5-7.6,7.4-2.3,2.9-3.7,6-4.3,6.2-.7.3-.2-2.2,1.6-5.1,1.4-2.4,3.7-5.2,5.4-7.6,2-2.7,4.5-4.8,6.5-7.5,2-2.7,3.4-6.2,5.4-8.9,2-2.7,3.9-5.6,5.9-8.3,2-2.7,4.3-5,6.3-7.7,2-2.7,4-5.4,6-8.1,2-2.7,3.6-5.9,5.6-8.6,2-2.7,3.9-5.4,5.9-8.2,2-2.7,4-5.3,5.9-8.1,1.8-2.5,4.3-3.9,6.3-6.1,2-2.2,4-4.1,6.1-6.1,2.1-2,4.1-4.2,6.2-6.1,2.1-1.9,4.3-3.7,6.4-5.7,2.4-2.2,4.6-5.1,7-7.4,2.4-2.3,4.6-5,7-7.3,2.4-2.3,4.9-4.4,7.2-6.7,2.4-2.4,4.9-4.3,7.2-6.7,2.3-2.4,4.7-4.8,7-7.2,3.1-4,5.5-7.4,6-10.1.8-4.1-2-6.2-5.5-5.9-2.3.2-5.2.8-8.5,3.3-2.4,1.8-4.8,4.6-7.4,7.9-2.1,2.2-4.5,4-6.6,6.3-2.1,2.3-4.3,4.4-6.4,6.7-2.1,2.3-3.5,5.8-5.6,8.1-2.1,2.3-4.5,4-6.7,6.2-2.1,2.2-4,5.2-6.2,7.3-2.5,2.1-5.2,3.7-7.8,5.6-2.6,1.9-5.1,4.2-7.7,6-2.6,1.8-5.2,3.5-7.8,5.5-2.6,1.9-5.1,3.8-7.6,6-2.5,2.2-4.8,4.5-7.2,7.2-2.2,2.4-4.2,5.1-6.3,7.6-2.1,2.5-4.5,4.5-6.6,7.2-2,2.6-4.3,5-6.3,7.7-2,2.8-4.2,5.3-6.1,8.2-1.9,2.9-3.8,5.8-5.6,8.7-1.9,3.2-3.3,6.9-5.2,10-1.9,3.2-3.8,6.3-5.9,9.4-2.1,3-4.3,5.8-6.5,8.6-2.1,2.6-4.4,5-6.5,7.7-2.1,2.7-4.4,5.1-6.4,7.9-2,2.8-3.1,6.7-5.1,9.6-2,2.9-4.3,5.2-6.2,8.1-1.9,2.9-3.2,6.5-5,9.5-1.9,3-4.5,5.1-6.4,8.1-1.8,3-3.7,6-5.5,9-1.8,3-3.4,6.2-5.2,9.3-1.7,3.1-3.1,6.4-4.9,9.5-1.7,3.1-3.9,5.8-5.6,8.9-1.7,3.1-2.6,6.9-4.2,10-1.7,3.1-3.7,5.9-5.4,9.1-1.7,3.1-3.3,6.3-4.9,9.4-1.7,3.1-3.7,6-5.3,9.1-1.7,3.1-3,6.5-4.7,9.6-1.7,3.1-4.1,5.7-5.7,8.8-1.7,3.1-3.1,6.4-4.8,9.5-1.4,3-2.9,5.9-4.4,9-1.4,3-1.8,6.5-3.2,9.6-1.4,3-2.9,5.9-4.1,9-1.3,3.1-2.4,6.1-3.4,9.2-1.1,3.1-2.4,6.1-3.2,9.2-.7,3-.4,5.5-.5,8.3-.1,2.8-1.2,5.9-1.1,8.7,0,2.8-.2,5.5-.5,8.3-.8,3.8-.2,7-.4,10.1-.2,3.7-.4,7,.1,9.7.6,3.2,2.2,5.1,3.8,7,1.7,1.9,3.5,3.4,6.1,3.8,2.3.4,4.8,1.4,7.8.6,2.5-.6,5.4-2.7,8.4-4.2,2.8-1.3,5.5-3,8.2-4.5,2.8-1.5,5.4-3.4,8.1-5.2,2.7-1.8,5.5-3.1,8.2-5.1s5-4.7,7.6-7c2.6-2.3,5.3-4.1,7.8-6.6,2.4-2.5,4.6-5.4,6.9-8.3,2.4-3,5.2-5.3,7.8-7.9,2.6-2.7,4.8-6,7.5-8.5,2.7-2.4,5.9-3.6,8.6-6,2.7-2.3,5.1-5.6,7.8-7.9,2.4-2.2,4.7-4.9,7.1-7.2,2.4-2.4,5-4.4,7.3-6.9,2.3-2.5,4.5-5.1,6.8-7.8,2.2-2.7,4.4-5.3,6.5-8.1,2.1-2.8,3.9-5.8,5.8-8.9,1.9-3,5-5.3,6.7-8.5,1.6-3.9,1.6-8,2.7-11.4,1.2-3.9,2.6-7.5,3.7-11.1,1.1-3.7,3.1-7,4.8-10.7,1.5-3.3,2.4-7.2,4.8-10.8,1.9-2.9,3.9-6.4,6.7-9.6,2.3-2.8,4.7-5.5,7-8.3,2.3-2.8,5.2-4.8,7.6-7.5,2.3-2.8,4.1-6.4,6.4-9.2,2.3-2.8,5.5-4.4,7.8-7.2,2.3-2.8,4-6.5,6.3-9.3,2.3-2.8,4.5-5.7,6.8-8.6,2.3-2.8,4.7-5.5,6.9-8.4,2.2-2.9,4.8-5.4,7-8.4,2.2-3,3.5-6.9,5.6-9.9,2.1-3,4.6-5.6,6.6-8.8,2-3.1,4-6.2,5.9-9.4,1.9-3.2,3.2-6.8,5-10.1,1.7-3.3,3.2-6.7,4.8-10.1,1.6-3.4,4.3-6.2,5.7-9.7,1.4-3.4,2.7-6.9,3.9-10.5,1.1-2.7,2-5.5,3.1-8.1,1.1-2.7,1.9-5.6,3.2-8.2,2-3.9,3.6-5.3,4.8-5.2,1.9,1.1,1.5,5.3,1.5,8.5,0,3.2.6,6.2.7,9.4,0,3.2.4,6.3.4,9.5,0,3.2-.5,6.6-.6,9.8,0,3.2.9,6.2.7,9.4-.2,3.3-1.6,6.5-2,9.9-.2.6-.3.3-.3.5h0c0,0,0,0,0,0ZM965.4,544.5c-2.2,0-4.7,1.2-7,1.3-2.2.2-4.5.4-6.8.8-2.2.3-4.6-.3-6.9.2-2.2.5-4.5,2-6.7,2.7-2.2.6-4.6.5-6.9,1.3-2.2.8-4.3,2.3-6.6,3.2-2.2.8-4.4,2-6.6,2.9-2.2.9-4.8.7-7,1.7-2.2,1-4.3,2.2-6.5,3.3-2.2,1.1-4.4,2.2-6.4,3.3-2.2,1.2-3.9,3.1-5.9,4.3-2.2,1.2-4.3,2.3-6.3,3.5-1.8,1.1-3.5,2.4-5.2,3.5-1.8,1.1-3.8,1.8-5.5,3-1.9,1.3-3.8,2.5-5,4.3-1.4,2.3-.7,4.1-.4,6.2.3,2-.5,4.1-.8,6.5-.2,1.8-.2,3.9-1.9,6.3-1.1,1.6-3.1,2.6-4.4,4-1.3,1.4-2,3.4-3.3,4.8s-2.8,2.7-4,4.2c-1.4,1.7-3.3,3.2-4.6,5-1.3,1.8-2.1,3.8-3.4,5.6-1.3,1.8-2.7,3.5-4.2,5.2-1.5,1.7-3.3,3-5,4.5-1.6,1.6-2.8,3.5-4.5,5.1-1.7,1.5-3.4,3-5.1,4.5-1.7,1.4-4.1,2.2-6,3.5-2,1.4-3.5,3.6-5.6,4.8-2.1,1.2-4.8,1.3-7,2.5-2.2,1.1-4,3-6.1,4-2.2,1.1-4.2,2.4-6.4,3.5-2.2,1.1-4.5,1.8-6.6,3-2.1,1.2-4.3,2.3-6.4,3.6-1.7,1.1-2.8,2.9-4.4,4-1.7,1.1-4.1,1.2-5.6,2.4-1.6,1.2-3.2,2.5-4.7,3.8-1.9,1.8-4,4.1-5.9,6.2-2,2.2-3.8,4.9-3.7,7.4.3,2.2,1.7,4.1,3.6,5.3,1.7,1.1,4.2,1.7,6.4,2.1,2.4.5,5-.1,7-.1,2.2,0,4.3-.5,6.5-.8,2.2-.3,4.4.5,6.6,0,2.2-.5,4.3-1.4,6.5-2,2.2-.6,4.3-1.2,6.5-1.9,2.1-.7,4.3-1.4,6.4-2.2,2.1-.8,3.9-2.6,6-3.5,2.1-.9,4.5-1,6.6-1.9,2.1-.9,4-2.2,6-3.2,2-1,4.2-1.8,6.2-2.9,2-1.1,3.8-2.6,5.7-3.8,1.9-1.3,3.6-2.7,5.3-4.2,1.6-1.5,3.2-3.1,4.3-5.1,1.3-2.1,2.5-4.1,3.5-6.3,1-2.2,2.1-4.1,3.7-6,1.6-1.8,3.3-3.3,5.1-4.9,1.8-1.6,3-3.8,4.9-5.3,1.9-1.5,3.9-2.9,5.8-4.4,2-1.5,3.8-3.1,5.9-4.5,2-1.4,4.5-2.1,6.6-3.4,2.1-1.3,3.8-3.2,5.9-4.5,2.1-1.3,4.5-2.1,6.6-3.5,2-1.3,4-2.6,6-3.9,2-1.3,4.3-2.2,6.3-3.5s3.5-3.5,5.5-4.8,4.5-1.9,6.5-3.2c2-1.3,4.1-2.6,6.1-3.8s4.1-2.5,6.2-3.7c2.1-1.2,4.1-2.5,6.3-3.6,2.1-1.1,4.2-2.5,6.3-3.5,2.1-1,4.2-2.2,6.4-3.2,2.2-.9,4.5-1,6.8-1.7,2.5-.8,5-2.1,7.5-2.6,2.5-.5,5.1-1.1,7.7-1.6,2.6-.5,5.1-1.1,7.6-2.1,2.1-.7,4.2-1.1,6.3-1.9,2.1-.8,4.3-1,6.4-1.9,2.1-.8,4-2.3,6-3.2,2.3-.8,4.6-1.7,6.9-2.4,2.3-.7,4.7-1.1,7-1.7,2.3-.6,4.6-1.1,7-1.6,2.3-.5,4.6-1.3,6.9-1.8,2.2-.4,4.3-.6,6.4-.7,2.1-.1,4.3-.5,6.4-.5,2.2,0,4.5,0,6.6,0,2.2.1,4.2.9,6.4,1.2,2.1.2,4.1,1,6.2,1.3,2.1.3,4.4,0,6.5.5,2.1.4,4.4.4,6.4,1,1.8.5,3.1,2.1,4.9,2.6,1.8.5,3.6.9,5.4,1.4,2,.5,4.3.3,6.3.7,2.1.4,4,1,6.1,1.3,2.1.3,4.2.7,6.2.9,2.1.2,4.3.2,6.4.3,2.2,0,4.3-.1,6.5-.2,2.2,0,4.4-.3,6.5-.5,2.2-.2,4.3.3,6.5,0,2.2-.4,4.4-.7,6.7-1.2,2.2-.5,4.4-1.5,6.7-2.2,2.2-.7,4.4-1.2,6.7-2,2.2-.8,4.3-2.2,6.5-3.1,2.2-.9,4.5-1.1,6.7-2.2,1.8-.8,3.9-3,6.5-4.3,2.1-1.1,4.5-1.6,6.9-2.8,2.2-1.1,4.4-2.6,6.7-3.7,2.3-1.1,4.7-1.7,6.9-2.6,2.4-1.1,4.7-2.4,6.8-3.1,2.8-.9,5-.9,6.7-.6,1.7.2,3.6.3,5.1,1.1,1.5.9,2.7,2.6,4.4,2.8,1.7.2,3.6-1.6,5.3-2.1,1.8-.6,3.6,0,5.3-.8,3.1-1.2,6.1-3.3,9.1-4.7,2.5-1.1,5.1-2.1,7.6-3.3,2.5-1.2,5-2.6,7.5-3.9,2.5-1.3,5.3-1.5,7.8-2.9,2.5-1.4,4.7-3.9,7.1-5.4,2.4-1.6,5.2-2.3,7.6-4.1,2.4-1.7,4.3-4.5,6.7-6.4,2.3-1.9,5.2-2.8,7.5-4.7,2.3-2,4.4-4.3,6.7-6.3,2.3-2,4.6-4,6.9-6,2.1-1.9,3.9-4.4,6.1-6.2,2.2-1.8,4.7-3,6.9-4.7,2.2-1.7,4.4-3.5,6.7-5.2,2.3-1.6,4.6-3,6.9-4.6,2.3-1.6,4.5-3.4,6.8-4.9,2.2-1.4,4.4-2.5,6.5-3.9,2.2-1.4,4-3.8,6.2-5.2,2.2-1.4,4.4-2.5,6.6-3.9,2.2-1.4,4.2-3.1,6.4-4.6s4.6-2,6.7-3.5c2.2-1.5,4.2-3.4,6.3-4.9,2.2-1.5,4.5-2.3,6.7-3.8,2.3-1.6,4.3-4.2,6.5-6,2.3-1.7,4.8-2.7,7-4.6,2.2-1.9,4.4-4,6.5-6.1,2.1-2.1,4.3-4.3,6.1-6.8,1.8-2.4,3.4-5.3,4.9-8.1,1.8-3.1,3.4-6.4,5.1-9.6,1.7-3.2,3.6-6.3,5.2-9.6s3.1-6.6,4.7-9.9c1.1-2.3,1.5-4.9,2.4-7.3,1-2.4,2.9-4.6,3.7-7,1.1-4.2.6-7.2,0-9-.7-2.7-3-3.4-6-1.8-2,1.1-4.3,3.4-6.7,5.9-2.2,2.2-3.9,5.1-6,7.5-2.1,2.3-4.6,4-6.6,6.4-2,2.4-4.3,4.5-6.3,6.9-2,2.4-3.6,5.3-5.6,7.8-1.9,2.4-3.6,5.3-5.5,7.7-2,2.4-4.1,4.6-6.1,7-2,2.4-3.7,5.1-5.8,7.4-1.7,1.8-3.5,3.5-5.2,5.2-1.7,1.7-4,2.5-5.7,4.1-1.8,1.6-3.4,3.5-5.2,5.1-2.3,2.1-4.5,4.6-6.8,6.7-2.3,2.1-4.7,4.2-7,6.2-2.4,2-4.6,4.3-7.1,6.1-2.3,1.7-4.7,3.2-7,4.6-2.3,1.4-4.8,2.2-7.2,3.5-2.4,1.2-4.8,2.6-7.1,3.8-2.4,1.2-4.7,3-7,4.4-2.3,1.3-4.6,2.8-6.9,4.4-2.1,1.6-4.3,2.9-6.3,4.6-2.1,1.7-4.3,2.9-6.4,4.6-2,1.7-4.2,3.1-6.2,4.9-2,1.7-4,3.5-6.1,5.1-2.1,1.7-3.7,4.3-5.8,5.8-2.1,1.5-4.3,2.9-6.5,4.2-2.1,1.3-4.4,2.2-6.5,3.5-2.1,1.3-4.3,2.5-6.4,3.7-2.2,1.2-4.5,1.8-6.6,2.9-2.2,1.2-4.1,3.3-6.3,4.4-2.2,1.1-4.5,1.2-6.7,2.2-2.2,1-4.4,1.8-6.6,2.7-2.2,1-4.3,2.2-6.5,3.1-2.2.9-4.4,2.6-6.6,3.4-2.2.7-4.5.2-6.7.8-2.2.6-4.4,1.8-6.6,2.3-2.2.5-4.4.3-6.6.7-2.2.4-4.5,2.1-6.7,2.5-2.2.4-4.3-.3-6.5.1-2.2.4-4.4.5-6.6.9-2.2.4-4.5,2.2-6.7,2.6-2.2.5-4.5,1-6.7,1.5-2.2.6-4.5.5-6.7,1.1s-4.4,2-6.7,2.6c-2.2.7-4.5.8-6.7,1.5-2.2.7-4.4,1.6-6.7,2.3-2.2.7-4.5,1.1-6.7,1.8-2.2.7-4.4,2.1-6.6,2.8-2.2.7-4.5.4-6.7,1-2.2.6-4.5,1.7-6.7,2.2-2.2.6-4.5,0-6.7.5-2.2.5-4.5,1.5-6.7,1.9-2.2.4-4.4.6-6.6.8-2.4.3-4.8.7-7.1.8-2.4.2-4.7.4-7.1.5-2.4,0-4.5-.6-6.9-.7-2.3,0-4.9,1-7.2.8-2.3-.2-4.4-1-6.7-1.3-2.2-.3-4.4-.8-6.6-1.3-2.2-.5-4.1-1.5-6.2-2.2-2.1-.6-4.1-1.4-6-2.4-2-.9-4.1-1.5-6-2.6-1.9-1-4.2-1.5-6.1-2.5-1.6-1-3.3-1.5-5.1-2.1-1.8-.6-3.5-1.2-5.4-1.5-1.9-.3-3.7-1-5.7-1.1-2.1-.1-4.1-.7-6.2-.8-2.1-.1-4.5.9-6.6,1.1-2.7.3-5.5.2-8.2.8-2.8.6-5.5,1.3-8.1.8-3.1-.6-6.1-1.7-9.3-2.2-.3-.1.2-.9.1-.9h0s0,0,0,0ZM1714.2,102.3c-1.1-1.7-5.2,2.1-7.4,5.1-1.9,2.3-3.3,4.8-4.8,7.7-1.7,3.5-4.3,6.5-5.8,10.2-1.5,3.7-2.1,7.9-3.5,11.6-1.3,3.2-3.3,6.1-4.5,9.3-1.2,3.2-1.5,6.8-2.5,10.1-1.1,3.3-1.8,6.6-2.8,9.9-1,3.3-3.3,6.3-4.2,9.6-.9,3.3-1.6,6.6-2.4,9.9-.8,3.3-1.7,6.6-2.5,9.9-.8,3.3-.5,6.6-1.3,9.9-.8,3.3-1.8,6.5-2.5,9.8-.8,3.3-1.2,6.5-2,9.8-.8,3.2-2.1,6.5-2.8,9.7-.8,3.6-1.3,7.1-2,10.6-.7,3.5-1,7.4-2.8,10.7-2,3.6-5.6,6.2-7.6,10-1.6,3.1-2,6.7-3.2,10-1.2,3.2-3.2,6.2-4.6,9.3-1.4,3.3-1.9,7.1-3.4,10.3-1.6,3.2-3.4,6.4-5.3,9.4-1.9,3-4.4,5.2-6.6,7.8-1.8,2.2-3.3,4.8-5.2,6.8-1.9,2-3.9,3.9-5.8,5.9-1.9,2-4.1,3.5-5.9,5.6-3.5,4-7.5,9.8-2.6,10.2,2.7-.3,5-1.4,7.4-3.2,2.5-1.8,5.2-3.2,7.4-6,2.1-2.6,3.2-6.4,5.1-9.3,2-3,4.9-5,6.7-7.8,1.7-2.5,2.7-5.6,4.4-8,1.8-2.4,3.4-5,5.2-7.4,1.6-2.2,4.6-5.3,6.6-7.2,2.3-2.2,3.2-2.3,1,5-.8,2.5-.7,5.3-1.8,7.7-1.1,2.4-3.5,4-4.9,6.3-1.5,2.6-3.2,4.9-4.9,7.3-1.7,2.4-3.2,5.1-4.9,7.5-1.7,2.4-3.5,4.9-4.9,7.6-1.9,3.4-3.9,6.3-6.2,9.2-2.3,2.9-4.6,5.6-7.3,7.9-2.4,2.1-4.4,5.2-6.8,7.2-2.4,2.1-4.8,4.4-7.2,6.3-2.4,2-5.3,2.4-7.8,4.3-2.5,1.9-4.8,4.1-7.3,5.9-2.5,1.8-5,3.3-7.5,5-2.5,1.6-5,3-7.6,4.5-2.5,1.5-4.9,4.2-7.4,5.5-2.2,1.2-4.5,1-6.7,2.1-2.2,1.1-4.4,2.6-6.6,3.7-2.2,1-4.4,1.6-6.6,2.6-2.4,1.1-4.8,2.9-7.2,4.1-2.4,1.2-4.8,2.6-7.1,3.9-2.4,1.3-4.8,2.4-7.2,3.9-2.3,1.4-4.8,2.4-7.1,4-2.3,1.5-4.7,3-7,4.7-2.3,1.6-4.6,3.3-6.9,5-2.6,1.9-4.7,5.1-7.2,7.1-2.5,2-5.1,4-7.5,6.1-2.5,2.1-4.8,4.6-7.2,6.9-2.4,2.2-5.2,3.7-7.6,6.1-2.4,2.3-4.3,5.4-6.6,7.9-2.3,2.4-5,4.4-7.3,6.7-2.3,2.4-4.7,4.7-7.2,6.8-2.1,1.7-4.4,2.9-6.5,4.5-2.1,1.6-3.8,4.3-5.8,6-2.3,2-5,2.9-7.3,4.8-2.3,1.9-4.6,3.7-6.9,5.6-2.3,1.8-4.6,3.6-6.9,5.4-2.3,1.8-4.6,3.7-6.9,5.4-2.3,1.7-4.5,3.8-6.9,5.5-2.3,1.7-4.6,3.7-6.9,5.4-2.3,1.7-5,2.5-7.3,4.2-2.3,1.7-4.3,4.2-6.6,5.9-2.3,1.7-4.5,3.6-6.8,5.3-2.3,1.7-4.6,3.4-6.8,5.2-2.3,1.8-4.7,3.2-6.9,5.1-2.2,1.8-4.8,3.1-6.9,5-1.4,1.2-3.3,3.9-6.1,6.5-2,1.8-4.1,4-6.2,6.2-2.1,2.1-4.3,4.1-6.1,6.2-2.2,2.5-4.1,4.9-5.3,7.1-1.7,3.1-1.7,5.7.7,6.7,1.6.4,3.9-.3,6.3-1.4,2.2-1,4.3-2.7,6.1-3.8,2.5-1.5,4.9-3.4,7.3-5.1,2.4-1.8,5.1-3,7.4-5,2.3-1.9,5-3.5,7.3-5.5,2-1.8,3.6-4,5.6-5.8,2-1.8,3.6-4,5.6-5.8,2-1.8,4.5-2.8,6.4-4.6,2-1.8,3.9-3.7,5.8-5.6,1.9-1.8,3.6-4.3,5.5-6.1,1.9-1.9,4-3.5,6-5.4,2.2-2.1,4.5-4.1,6.8-6.1,2.3-2,4.5-4.1,6.9-6,2.3-1.9,4.6-4,7-5.9,2.4-1.9,4.7-3.8,7.1-5.6,2.4-1.8,5.1-2.9,7.5-4.6,2.4-1.8,4.9-3.4,7.3-5.1,2.4-1.7,4.8-3.9,7.2-5.6,2.5-1.7,5-3.2,7.5-4.9,2.5-1.7,4.8-3.9,7.3-5.7,2.4-1.6,5-2.3,7.4-3.9,2.4-1.6,4.5-4.3,6.9-5.8,2.4-1.5,5-2.1,7.4-3.5,2.4-1.4,4.8-3.2,7.2-4.5,2.4-1.4,5-2,7.4-3.4,2.4-1.3,4.8-3.1,7.3-4.4,2.5-1.3,5-2.1,7.5-3.4,2.5-1.3,4.8-3.5,7.3-4.8,2.5-1.3,5.1-1.6,7.6-2.9,2.3-1.2,4.4-3.9,6.7-5.2,2.3-1.3,4.9-1.4,7.1-3,2.7-1.9,5-4.8,7.5-7.2,2.1-1.9,4.1-4,6.1-6.2,2-2.2,3.8-4.7,5.8-6.8,2-2.2,4.6-3.2,6.8-5,2.5-2.1,4.8-5.1,7.5-6.7,2.6-1.6,5.5-1.7,8.2-3,2.7-1.2,5.4-3.7,8.1-4.8,1.8-.8,4.1.2,5.5.2,1.6,0,1.9-.3-2.5,3-1.3,1.1-3.9,2.4-6.2,4.1-2.6,1.8-4.4,4.1-4.6,6.1.8,1.8,2.8,2.4,5.5,1.6,2.4-.7,5.1-2.2,6.8-3,2.4-1.4,4.9-2.7,7.2-4.4,2.3-1.7,4.5-3.9,6.8-5.8,2.3-1.9,4.6-3.7,6.8-5.8,2.2-2.1,3.8-5.2,5.9-7.5,2.1-2.2,4.4-4.2,6.4-6.6,2.1-2.3,3.9-5,5.9-7.4,2-2.4,4.6-4.1,6.6-6.6,2.1-2.5,3.6-5.6,5.1-8.4,1.6-2.9,3.6-5.6,4.9-8.6,1.3-3,1.8-6.4,3.3-9.4,1.9-3.4,4.5-6.2,6.3-9.4,1.9-3.4,3.7-6.8,5.2-10.2,1.6-3.5,3.1-7.2,3.9-10.9.8-3.4.8-7,.6-10.8,0-3-.9-5.6-1.6-8.2-.7-2.6-1.1-5.4-1.5-8.2-.3-2.7-.5-5.4-.4-8.3.1-2.9-.4-5.7,0-8.7.5-3,2.3-6.1,3.1-9.1.8-3.1.8-6.2,1.8-9.1,1.3-3.9,3.3-7.6,4.7-11.5,1.4-3.9,2.4-8,3.1-12,.6-3.4.3-6.8.8-10.2.5-3.4,1.7-7,2.1-10.4.4-3.4,1.3-6.9,1.8-10.4.4-3.4.4-6.8,1-10.3.6-3.8.7-7.5,1.5-11.3.8-3.8,2-7.5,3.1-11.3,1.1-3.8,1.9-7.6,3.2-11.3,1.2-3.2,2.5-6.4,3.8-9.6,1.2-3.2,3.4-5.9,4.7-9.1,1.4-3.6,2.6-7.4,3.6-11,.8-2.8.5-5.1-.3-6.1,0-.6.7-1,.7-1h0ZM1638.2,208.2c1.4.2,3.7-4.1,5.4-6.5,2.7-4,5.3-7.9,7.8-12.1,1.8-3,4.3-5.4,5.9-8.5,1.6-3.2,2.2-7,3.6-10.2,1.4-3.3,3.6-6.2,4.9-9.5,1.3-3.3,1.7-7.1,2.8-10.5,1.2-3.4,2-6.9,3.1-10.4,1.1-3.4,3.4-6.6,4.4-10.1,1-3.5,1.7-7.1,2.6-10.6.9-3.5,1.8-7.1,2.7-10.6.9-3.5.7-7.3,1.5-10.9.8-3.4,1.8-6.6,2.5-10,.7-3.4,1-6.7,1.6-10.1.6-3.4,1.7-6.8,2.2-10.2.5-3.4,1.1-6.8,1.6-10.2.6-3.7.7-7.6,1.7-11.3,1-3.7,3.3-6.9,4.4-10.5,1.1-3.6,1.4-7.6,2.5-11.3,1-3.4,3-6.1,4.2-9.4,1.2-3.2,1.5-7.1,2.9-10.2,1.4-3.1,2.9-6.2,4.4-9.2,1.5-3,3.7-5.3,5.3-8.2,1.6-2.9,2.7-6.4,4.3-9.3,1.7-3,3.4-6,5.1-9.1,1.7-3.1,3.7-5.8,5.3-8.9,1.6-3.2,2.4-7,3.8-10.3,1.4-3.3,2.7-6.6,3.9-10,1.2-3.4,3.3-6.5,4.3-10,.8-3.1.5-7.2,1.3-10.9.7-3.6,2.8-7.3,2.9-10.7,0-3.7-1.5-6.8-2.9-9.4-2.4-3.8-6.2-3.1-9.7-1.8-2.5,1-5,1.7-7.2,3.8-2.2,2.1-4.4,4.3-6.4,7.2-1.9,2.8-2.7,6.9-4.3,10-1.6,3.2-4.4,5.3-5.7,8.6-1.3,3.3-2.7,6.9-3.7,10.4-1,3.6-1.5,7.5-2,11.1-.5,3.6-.8,7.5-.4,11.1.3,2.7.7,5.5,1.2,8.2.5,2.7,1.1,5.1,1,7.9-.1,3.6.2,7.2-.6,10.7-.8,3.5-1.7,7.1-2.9,10.5-1.2,3.4-3.7,6-4.9,9.2-1.4,3.5-2.5,7.2-4,10.6-1.6,3.4-3.3,6.6-5.1,9.7-1.8,3.2-3.8,6-5.8,8.8-2.1,2.8-3.6,6.7-5.9,9.1-2.3,2.3-5.1,3-7.6,4.7-2.1,1.5-4.2,3.4-6.3,4.7-2.2,1.4-4.5,2.3-6.5,4.1-2,1.8-3.7,4.5-5.3,7.2-1.9,2.9-3.3,6.4-4.8,9.8-1.5,3.4-3.2,6.7-5,9.8-1.8,2.9-3.9,5.2-5.8,8-1.8,2.8-3.8,5.5-5.5,8.4-1.7,2.9-3.5,6.1-4.8,9.3-1.3,3-1.4,6.7-2.3,10-.9,3.2-1.8,6.4-2.4,9.6-.7,3.3-1,6.6-1.6,9.8-.7,3.9-1.9,7.1-1.8,9.6.2,3.6,1.8,5,3.4,6.6,1.4,1.5,2.9,3.2,5.2,4,1.8.7,3.9,1.1,6,2,2.3,1.3,3.4,4.2,4.4,7.3,1,3.1,2.6,6,2.6,9.5,0,3.8-2,7.9-2.8,11.9-.9,4-1.8,8.3-1.5,11.9.2,2.3,1,5.5,2.8,5.6.3.2.1.4.2.4h0ZM1511.1,392.4c.2.3.6.9-.5,2-2.8,2.8-6.2,5.2-9.2,7.6-2,1.6-4.4,1.9-6.4,3.4-2,1.5-3.7,4.2-5.7,5.6-2.1,1.5-4.5,2-6.6,3.4-2.1,1.4-4,3.8-6.1,5.2-2.1,1.5-4.1,3.3-6.1,5-2.6,2.1-5.6,3.1-8,5.5-2.4,2.4-4.6,5.1-7,7.6-2.3,2.5-4.7,4.9-7.1,7.1-2.1,2-3.9,4.9-6.1,6.5-2.2,1.6-4.6,2.9-6.9,4.4-2.3,1.4-4.6,3-6.9,4.3-2.3,1.3-4.8,1.9-7.1,3.2-2.2,1.2-4.4,2.2-6.7,3.4-2.2,1.2-4.3,3.1-6.5,4.3s-4.6.9-6.8,2.1c-2.2,1.2-4.3,3.3-6.4,4.5-2.2,1.2-4.6,1.3-6.8,2.6-1.4.7-3.5,3.4-6.3,5.4-1.9,1.4-4.1,2.9-6.4,4.6-2.1,1.6-4.5,2.6-6.5,4.3-2.1,1.8-3.9,4.2-5.7,6-2.2,2.1-4,4.1-5.5,6-2.1,2.9-3.7,5.4-3.1,7.3.7,1.8,2.7,2.4,4.5,3.2,1.7.7,3.5,1,5.5,1,2.1,0,4.2.6,6.1-.2,2.5-1,4.9-3.4,7.3-4.5,2.5-1.1,5.2-.8,7.7-2,2.5-1.3,4.8-3.6,7.2-5,2.5-1.4,4.8-3.1,7.3-4.6,2.4-1.5,5-2.5,7.4-4.1,2.4-1.6,4.9-3.1,7.2-4.9,2.4-1.8,4.3-4.6,6.6-6.5,2.3-1.9,5.2-2.4,7.6-4.4,2.3-2,4.7-3.9,6.9-5.9,2.3-2,4.3-4.5,6.6-6.6,2.2-2.1,4.5-4.1,6.8-6.3,2.2-2.2,4.5-4.3,6.7-6.5,2.2-2.2,4.2-4.7,6.4-7,2.2-2.3,3.8-5.3,6-7.7,2.3-2.1,4.5-4.5,6.8-6.6,2.3-2.1,5.2-3,7.5-5.1,2.3-2.1,4.4-4.6,6.7-6.7,2.3-2.1,4.7-4.1,7-6.2,2.3-2.1,4.7-4.1,7-6.2,2.3-2.1,4.1-5.3,6.5-7.4,2.3-2.1,5.1-3.2,7.4-5.4,2.3-2.2,4.4-4.7,6.8-6.9,2.3-2.2,4.8-4,7.1-6.3,2.3-2.2,4.3-4.9,6.6-7.2,2.3-2.2,3.9-4.1,5.2-6,1.7-2.4,2.9-4.5,4-7.2.8-2.2,2.1-4.7,3.1-7.8,1-2.8,2.5-5,4.1-7.4,1.6-2.4,3.5-4.6,5.2-6.9,1.7-2.4,2.4-5.5,3.6-8.2,1.6-3.5,2.4-6.3,2.6-8.6.3-3.9-.7-4.9-3.4-2.6-1.4,1.2-3.7,2.8-5.8,6.6-1.6,3-2.5,6.5-4.2,9.4-1.7,3-3.9,5.4-5.9,8.1-2.2,2.8-4.5,5.4-7,7.8-2.6,2.5-5.4,4.4-8.1,6.7-2.7,2.3-5,5.7-7.7,7.7-2.7,2.1-5.8,2.8-8.6,4.6-2.4,1.6-4.8,3.2-7.2,4.8-2.4,1.6-4.8,3.1-7.2,4.6-2.4,1.5-4.8,3.2-7.2,4.6-2.4,1.4-4.8,3.2-7.2,4.5-2.8,1.5-5.2,3.1-7.4,4.2-2.8,1.4-5.3,1.5-7.6,2.7-2.5,1.4-4.7,3.8-7.1,5.7-2.1,1.7-4.2,3.8-6.6,6.3-1.9,2-3.9,4.3-6.1,7.1-2.6,3.2-6.7,6.1-7,9.9,0,1.5,1.2,3.2,3.2,3.2,2.1,0,4.5-1.6,6.7-2.7,2.1-1.1,4.2-2.7,6.2-4.3,2.7-2.2,5.5-4.2,8.2-6.4,2.2-1.8,4.4-3.2,6.7-4.7,2.3-1.5,4.5-3.1,6.8-4.4,2.3-1.3,4.6-2.5,7-3.9,2.3-1.3,4.5-3.1,6.8-4.6,3.3-2,6.4-4.7,9.7-6.9,1.6-1.1,4.6-2.2,5.7-1.8.1.4-.6.8-.6.8h0s0,0,0,0ZM1725.4,20c.9,4.2,4.2,3.1,7.3,1.5,2.4-1.2,5.1-3.4,7.6-5.9,3-2.9,6.3-4.6,7.8-6.3,2.1-2.4,3.5-6.2,5.4-8.8,1.9-2.7,4.4-4.6,6.2-7.5,1.8-2.9,2.8-6.7,4.4-9.7,1.6-3.1,2.9-6.4,4.4-9.6,1.5-3.2,4.1-5.6,5.5-8.9,1.3-3.3,2.4-6.9,3.7-10.2,1.2-3.2,2.4-6.4,3.5-9.7,1.1-3.2,1.3-7.1,2.5-10.3,1.2-3.2,2.7-6.3,4.1-9.3,1.4-3.1,2.8-6.3,4.5-9.1,2-3.3,4.7-5.7,7.1-8.3,1.9-2,4-3.4,6.2-5.1,2.1-1.6,3.8-4.3,5.7-6.3,2.9-2.9,6.1-5.2,8.5-9,2.3-3.7,4.2-8,6.9-11.3,2.6-3.3,5.9-5.2,8.6-8.3,2.2-2.9,6.8-8.5,5.7-12.6-1.4-1.9-3.4-1.3-6.3.1-2.2,1.1-4.9,1.7-7.1,3.4-2.7,2.1-4.8,5.1-6.4,6.2-2.4,2-4.7,4-7,6.1-2.3,2.1-4.9,3.6-7.2,5.9-2.3,2.3-4.1,5.5-6.3,8-2.2,2.4-4.3,4.9-6.4,7.6-2.1,2.6-4.8,4.2-6.8,7.1-2.4,3.5-3.5,8.7-5.6,12.6-2.1,3.9-5.2,6.4-7.7,9.9-2.2,2.8-3.8,6.7-6,9.6-2.2,2.8-4.2,6-6.4,8.9-2.2,2.9-4.7,5.2-6.8,8.2-2.1,3-4.3,5.9-6.3,9-2,3.2-3,7.4-4.9,10.8-1.8,3.4-4.8,5.6-6.4,9.2-1.6,3.5-3.3,7.2-4.7,11-1.3,3.7-2.2,7.8-3.3,11.7-.8,3-2.1,6.1-2.9,9.2-.9,3.2-1.6,6.6-1.3,9.5,0,.6,0,.6,0,.7h0ZM1478.7-72.3c-.2-4.9-2.8-9.5-4.9-12.3-2.2-3-4-3.3-6.7,3-1.5,4.4-3.7,8.5-4.3,13.4-.7,4.9,0,10.2-.5,15.1-.5,5.6-2,10.9-4.4,15.2-2,3.7-4,7.2-5.7,11.4-1.1,2.8-1.5,6-2,9.6-.4,3.3-2,6.7-1.9,10.2.1,3.5.7,7.1,1.3,10.3.6,3.5,1.7,7,2.9,9.5,1.8,2.7,4,.1,6-2.2,1.9-2.2,3.7-5,5-6.8,1.7-2.5,2.6-5.4,3.6-8.5,1-3.1,2.3-5.9,3-9.3.7-3.3,1.4-6.7,1.9-10.1.7-4,.5-8.3,1.2-12.3.6-4,2.6-7.6,3.2-11.6.6-4.1.2-8.5.6-12.6.5-3.9,1.8-7.7,1.5-11.5,0-.6,0-.4,0-.6h0Z"/>
        </g>
      </g>
    </g>
  </g>
</svg>